<svg xmlns="http://www.w3.org/2000/svg" viewBox="0 0 3600 820" width="3600" height="820">
<rect width="100%" height="100%" fill="white"/>
<text x="110" y="42" font-family="Arial, sans-serif" font-size="32" font-weight="700" fill="#222222">Buffered output waveforms overlay zoom</text>
<text x="110" y="70" font-family="Arial, sans-serif" font-size="17" fill="#555">Overlay view, 0.20-0.80 us, shared 0-1.8 V axis</text>
<line x1="110.00" y1="90" x2="110.00" y2="730" stroke="#e7e7e7"/>
<text x="110.00" y="764" text-anchor="middle" font-family="Arial" font-size="16" fill="#222222">0.200</text>
<line x1="396.25" y1="90" x2="396.25" y2="730" stroke="#e7e7e7"/>
<text x="396.25" y="764" text-anchor="middle" font-family="Arial" font-size="16" fill="#222222">0.250</text>
<line x1="682.50" y1="90" x2="682.50" y2="730" stroke="#e7e7e7"/>
<text x="682.50" y="764" text-anchor="middle" font-family="Arial" font-size="16" fill="#222222">0.300</text>
<line x1="968.75" y1="90" x2="968.75" y2="730" stroke="#e7e7e7"/>
<text x="968.75" y="764" text-anchor="middle" font-family="Arial" font-size="16" fill="#222222">0.350</text>
<line x1="1255.00" y1="90" x2="1255.00" y2="730" stroke="#e7e7e7"/>
<text x="1255.00" y="764" text-anchor="middle" font-family="Arial" font-size="16" fill="#222222">0.400</text>
<line x1="1541.25" y1="90" x2="1541.25" y2="730" stroke="#e7e7e7"/>
<text x="1541.25" y="764" text-anchor="middle" font-family="Arial" font-size="16" fill="#222222">0.450</text>
<line x1="1827.50" y1="90" x2="1827.50" y2="730" stroke="#e7e7e7"/>
<text x="1827.50" y="764" text-anchor="middle" font-family="Arial" font-size="16" fill="#222222">0.500</text>
<line x1="2113.75" y1="90" x2="2113.75" y2="730" stroke="#e7e7e7"/>
<text x="2113.75" y="764" text-anchor="middle" font-family="Arial" font-size="16" fill="#222222">0.550</text>
<line x1="2400.00" y1="90" x2="2400.00" y2="730" stroke="#e7e7e7"/>
<text x="2400.00" y="764" text-anchor="middle" font-family="Arial" font-size="16" fill="#222222">0.600</text>
<line x1="2686.25" y1="90" x2="2686.25" y2="730" stroke="#e7e7e7"/>
<text x="2686.25" y="764" text-anchor="middle" font-family="Arial" font-size="16" fill="#222222">0.650</text>
<line x1="2972.50" y1="90" x2="2972.50" y2="730" stroke="#e7e7e7"/>
<text x="2972.50" y="764" text-anchor="middle" font-family="Arial" font-size="16" fill="#222222">0.700</text>
<line x1="3258.75" y1="90" x2="3258.75" y2="730" stroke="#e7e7e7"/>
<text x="3258.75" y="764" text-anchor="middle" font-family="Arial" font-size="16" fill="#222222">0.750</text>
<line x1="3545.00" y1="90" x2="3545.00" y2="730" stroke="#e7e7e7"/>
<text x="3545.00" y="764" text-anchor="middle" font-family="Arial" font-size="16" fill="#222222">0.800</text>
<line x1="110" y1="698.00" x2="3545" y2="698.00" stroke="#e7e7e7"/>
<text x="94" y="703.00" text-anchor="end" font-family="Arial" font-size="15" fill="#555">0 V</text>
<line x1="110" y1="554.00" x2="3545" y2="554.00" stroke="#e7e7e7"/>
<text x="94" y="559.00" text-anchor="end" font-family="Arial" font-size="15" fill="#555">0.45 V</text>
<line x1="110" y1="410.00" x2="3545" y2="410.00" stroke="#e7e7e7"/>
<text x="94" y="415.00" text-anchor="end" font-family="Arial" font-size="15" fill="#555">0.9 V</text>
<line x1="110" y1="266.00" x2="3545" y2="266.00" stroke="#e7e7e7"/>
<text x="94" y="271.00" text-anchor="end" font-family="Arial" font-size="15" fill="#555">1.4 V</text>
<line x1="110" y1="122.00" x2="3545" y2="122.00" stroke="#e7e7e7"/>
<text x="94" y="127.00" text-anchor="end" font-family="Arial" font-size="15" fill="#555">1.8 V</text>
<rect x="110" y="90" width="3435" height="640" fill="none" stroke="#222"/>
<polyline points="110.14,697.29 115.87,698.75 121.59,697.26 127.32,699.10 133.04,151.03 138.77,121.31 144.49,122.70 150.22,121.31 155.94,122.68 161.67,121.33 167.39,122.66 173.12,121.36 178.84,122.63 184.57,121.38 190.29,122.61 196.02,121.40 201.74,122.59 207.47,121.42 213.19,122.57 218.92,121.44 223.89,122.55 227.28,121.46 231.00,122.52 235.77,121.49 241.50,122.51 246.38,121.50 249.65,122.48 253.21,121.53 257.48,122.46 263.21,121.55 268.93,122.45 274.66,121.56 280.38,122.43 286.11,121.57 291.83,122.42 297.56,121.59 303.28,122.41 309.01,121.60 314.73,122.40 320.46,121.59 326.18,122.34 331.91,119.62 337.63,696.08 343.36,699.40 349.08,696.59 354.81,699.29 360.53,696.70 366.26,699.25 371.98,696.75 377.71,699.21 383.43,696.80 389.16,699.17 394.88,696.83 400.61,699.14 406.33,696.86 412.06,699.12 417.78,696.89 423.51,699.09 429.23,696.91 434.96,699.07 440.68,696.93 445.75,699.05 449.36,696.96 453.35,699.03 459.07,696.98 464.80,699.01 470.52,696.99 474.65,698.99 479.09,697.01 484.52,698.98 490.24,697.03 495.97,698.96 501.69,697.04 507.42,698.95 513.14,697.05 518.87,698.94 524.59,697.06 530.32,698.93 536.04,697.07 541.77,698.92 547.49,697.09 553.22,698.91 558.94,697.13 564.67,698.90 570.39,697.09 576.12,442.29 581.84,120.66 587.57,123.37 593.29,120.61 599.02,123.38 604.74,120.62 610.47,123.36 616.19,120.65 621.92,123.34 627.64,120.67 633.37,123.31 639.09,120.71 644.82,123.28 650.54,120.74 656.27,123.24 661.99,120.77 667.72,123.21 672.28,120.81 676.59,123.17 682.31,120.85 688.04,123.14 693.76,120.88 699.49,123.11 705.21,120.91 710.94,123.08 716.66,120.94 722.39,123.05 728.11,120.96 733.84,123.02 739.56,120.99 745.29,123.00 751.01,121.01 756.74,122.98 762.46,121.01 768.19,122.96 773.91,119.90 779.64,694.68 785.36,698.99 791.09,697.02 796.81,698.95 802.54,697.02 808.26,698.95 813.99,697.05 819.71,698.93 825.44,697.08 831.16,698.91 836.89,697.10 842.61,698.89 848.34,697.11 854.06,698.87 859.79,697.13 865.51,698.86 871.24,697.15 876.96,698.84 882.69,697.16 888.41,698.83 894.14,697.17 897.92,698.82 902.08,697.19 907.08,698.80 911.17,697.21 913.91,698.78 916.92,697.23 920.46,698.76 926.19,697.24 931.91,698.75 937.64,697.25 943.36,698.74 949.09,697.26 954.81,698.74 960.54,697.27 966.26,698.73 971.99,697.28 977.71,698.72 983.44,697.29 989.16,698.71 994.89,697.29 1000.61,698.74 1006.34,697.27 1012.06,698.82 1017.79,696.43 1023.51,130.28 1029.24,115.47 1034.96,128.54 1040.69,115.91 1046.41,128.08 1052.14,116.24 1057.86,127.73 1063.59,116.55 1069.31,127.41 1075.04,116.83 1080.76,127.13 1086.49,117.08 1092.21,126.87 1097.94,117.32 1103.66,126.63 1109.39,117.55 1115.11,126.41 1119.83,117.78 1124.31,126.15 1130.03,118.00 1135.76,125.95 1141.48,118.18 1147.21,125.77 1152.93,118.35 1158.66,125.60 1164.38,118.51 1170.11,125.44 1175.83,118.66 1181.56,125.29 1187.28,118.80 1193.01,125.15 1198.73,118.93 1204.46,125.03 1210.18,119.00 1215.91,124.94 1221.63,302.51 1227.36,698.49 1233.08,697.49 1238.81,698.53 1244.53,697.43 1250.26,698.58 1255.98,697.42 1261.71,698.59 1267.43,697.42 1273.16,698.59 1278.88,697.41 1284.61,698.59 1290.33,697.41 1296.06,698.59 1301.78,697.41 1307.51,698.59 1313.23,697.42 1318.96,698.58 1324.68,697.42 1330.41,698.58 1336.13,697.42 1341.86,698.58 1347.58,697.43 1353.31,698.57 1356.93,697.43 1360.99,698.56 1366.00,697.44 1371.73,698.56 1377.45,697.44 1383.18,698.55 1388.90,697.45 1394.63,698.55 1400.35,697.45 1406.08,698.54 1411.80,697.46 1417.53,698.54 1423.25,697.47 1428.98,698.53 1434.70,697.47 1440.43,698.53 1446.15,697.51 1451.88,698.51 1457.60,697.53 1463.33,544.33 1469.05,122.97 1474.78,121.22 1480.50,122.73 1486.23,121.34 1491.95,122.62 1497.68,121.42 1503.40,122.55 1509.13,121.48 1514.85,122.49 1520.58,121.53 1526.30,122.45 1532.03,121.58 1537.75,122.40 1543.48,121.62 1549.20,122.36 1554.93,121.65 1559.48,122.33 1564.45,121.69 1570.18,122.29 1575.90,121.72 1581.63,122.27 1587.35,121.75 1593.08,122.24 1598.80,121.77 1604.53,122.22 1610.25,121.79 1615.98,122.20 1621.70,121.82 1627.43,122.17 1633.15,121.84 1638.88,122.15 1644.60,121.86 1650.33,122.12 1656.05,121.85 1661.78,121.24 1667.50,694.77 1673.23,699.45 1678.95,696.54 1684.68,699.40 1690.40,696.57 1696.13,699.39 1701.85,696.61 1707.58,699.36 1713.30,696.64 1719.03,699.33 1724.75,696.67 1730.48,699.31 1736.20,696.69 1741.93,699.29 1747.65,696.72 1753.38,699.26 1759.10,696.74 1764.83,699.24 1770.55,696.76 1776.28,699.23 1782.00,696.78 1787.73,699.21 1793.45,696.80 1799.18,699.19 1803.84,696.81 1808.25,699.17 1813.97,696.83 1819.70,699.16 1825.42,696.85 1831.15,699.14 1836.87,696.86 1842.60,699.13 1848.32,696.88 1854.05,699.11 1859.77,696.89 1865.50,699.10 1871.22,696.90 1876.95,699.09 1882.67,696.91 1888.40,699.12 1894.12,696.89 1899.85,699.24 1905.57,694.61 1911.30,131.04 1917.02,114.56 1922.75,129.49 1928.47,115.02 1934.20,128.99 1939.92,115.39 1945.65,128.59 1951.37,115.73 1957.10,128.24 1962.82,116.04 1968.55,127.92 1974.27,116.33 1980.00,127.63 1985.72,116.60 1991.45,127.36 1997.17,116.85 2002.25,127.09 2005.58,117.18 2009.23,126.71 2013.52,117.49 2017.78,126.43 2023.51,117.72 2028.40,126.21 2033.06,117.94 2038.79,126.01 2044.51,118.11 2050.24,125.84 2055.96,118.27 2061.69,125.68 2067.41,118.42 2073.14,125.53 2078.86,118.56 2084.59,125.39 2090.31,118.68 2096.04,125.27 2101.76,118.57 2107.49,126.93 2113.21,694.97 2118.94,700.52 2124.66,695.42 2130.39,700.41 2136.11,695.56 2141.84,700.36 2147.56,695.63 2153.29,700.30 2159.01,695.68 2164.74,700.26 2170.46,695.73 2176.19,700.22 2181.91,695.78 2187.64,700.18 2193.36,695.82 2199.09,700.15 2204.81,695.85 2210.54,700.11 2216.26,695.89 2221.99,700.08 2227.71,695.92 2232.93,700.05 2238.66,695.95 2243.67,700.02 2246.99,695.99 2250.62,699.98 2255.06,696.03 2260.79,699.95 2266.51,696.05 2272.24,699.93 2277.96,696.07 2283.69,699.91 2289.41,696.10 2295.14,699.89 2300.86,696.12 2306.59,699.87 2312.31,696.14 2318.04,699.85 2323.76,696.16 2329.49,699.83 2335.21,696.20 2340.94,699.86 2346.66,695.75 2352.39,147.36 2358.11,113.57 2363.84,130.42 2369.56,114.00 2375.29,129.99 2381.01,114.36 2386.74,129.62 2392.46,114.69 2398.19,129.28 2403.91,115.00 2409.64,128.96 2415.36,115.29 2421.09,128.66 2426.81,115.57 2432.54,128.38 2438.26,115.83 2443.24,128.10 2446.51,116.19 2450.09,127.69 2454.31,116.52 2460.04,127.42 2465.76,116.74 2471.49,127.21 2477.15,116.94 2482.88,127.01 2488.60,117.13 2494.33,126.82 2500.05,117.30 2505.78,126.64 2511.50,117.47 2517.23,126.47 2522.95,117.62 2528.68,126.33 2534.40,117.74 2540.13,126.21 2545.85,117.48 2551.58,129.57 2557.30,694.74 2563.03,700.80 2568.75,695.13 2574.48,700.69 2580.20,695.27 2585.93,700.64 2591.65,695.34 2597.38,700.59 2603.10,695.40 2608.83,700.54 2614.55,695.45 2620.28,700.50 2626.00,695.49 2631.73,700.46 2637.45,695.53 2643.18,700.42 2648.90,695.57 2654.63,700.39 2660.35,695.61 2666.08,700.36 2671.80,695.64 2677.53,700.33 2683.25,695.67 2688.98,700.30 2692.76,695.71 2696.91,700.26 2702.02,695.74 2707.75,700.23 2713.47,695.77 2719.20,700.21 2724.92,695.80 2730.65,700.18 2736.37,695.82 2742.10,700.16 2747.82,695.85 2753.55,700.13 2759.27,695.87 2765.00,700.11 2770.72,695.89 2776.45,700.13 2782.17,695.86 2787.90,700.41 2793.62,683.64 2799.35,133.81 2805.07,111.79 2810.80,132.36 2816.52,112.34 2822.25,131.74 2827.97,112.80 2833.70,131.23 2839.42,113.23 2845.15,130.78 2850.87,113.63 2856.60,130.36 2862.32,114.01 2868.05,129.97 2873.77,114.36 2879.50,129.61 2885.22,114.70 2890.95,129.27 2894.78,115.08 2898.91,128.82 2903.96,115.45 2909.69,128.51 2913.12,115.80 2917.02,128.09 2921.81,116.13 2927.53,127.81 2933.26,116.36 2938.98,127.58 2944.71,116.58 2950.43,127.36 2956.16,116.78 2961.88,127.16 2967.61,116.97 2973.33,126.97 2979.06,117.12 2984.78,126.83 2990.51,116.58 2996.23,166.11 3001.96,695.15 3007.68,700.60 3013.41,695.36 3019.13,700.51 3024.86,695.47 3030.58,700.46 3036.31,695.53 3042.03,700.42 3047.76,695.57 3053.48,700.38 3059.21,695.62 3064.93,700.34 3070.66,695.66 3076.38,700.31 3082.11,695.69 3087.83,700.27 3093.56,695.72 3099.28,700.24 3105.01,695.76 3110.73,700.22 3115.75,695.79 3120.59,700.18 3126.32,695.82 3131.25,700.15 3134.53,695.86 3138.11,700.11 3142.42,695.89 3148.15,700.08 3153.87,695.92 3159.60,700.06 3165.32,695.94 3171.05,700.04 3176.77,695.96 3182.50,700.02 3188.22,695.99 3193.95,700.00 3199.67,696.01 3205.40,699.98 3211.12,696.03 3216.85,699.96 3222.57,696.07 3228.30,699.99 3234.02,695.58 3239.75,150.70 3245.47,113.04 3251.20,130.95 3256.92,113.48 3262.65,130.51 3268.37,113.85 3274.10,130.12 3279.82,114.20 3285.55,129.77 3291.27,114.52 3297.00,129.44 3302.72,114.83 3308.45,129.13 3314.17,115.12 3319.90,128.83 3325.62,115.39 3330.64,128.54 3333.93,115.76 3337.56,128.11 3341.84,116.11 3347.57,127.84 3353.29,116.33 3359.02,127.61 3364.74,116.54 3370.47,127.40 3376.19,116.74 3381.92,127.20 3387.64,116.93 3393.37,127.01 3399.09,117.10 3404.82,126.84 3410.54,117.26 3416.27,126.68 3421.99,117.38 3427.72,126.56 3433.44,117.07 3439.17,131.05 3444.89,694.75 3450.62,700.81 3456.34,695.12 3462.07,700.71 3467.79,695.25 3473.52,700.65 3479.24,695.32 3484.97,700.60 3490.69,695.38 3496.42,700.56 3502.14,695.43 3507.87,700.52 3513.59,695.47 3519.32,700.48 3525.04,695.51 3530.77,700.44 3536.49,695.55 3542.22,700.41" fill="none" stroke="#0066cc" stroke-width="3.0" stroke-opacity="0.88" stroke-linejoin="round" stroke-linecap="round"/>
<line x1="134" y1="116" x2="182" y2="116" stroke="#0066cc" stroke-width="5" stroke-opacity="0.88"/>
<text x="194" y="122" font-family="Arial" font-size="18" fill="#222222">uo_out[0]</text>
<polyline points="110.14,116.92 115.87,696.72 121.59,698.92 127.32,697.09 133.04,698.82 138.77,697.19 144.49,698.77 150.22,697.23 155.94,698.74 161.67,697.27 167.39,698.71 173.12,697.30 178.84,698.69 184.57,697.32 190.29,698.67 196.02,697.34 201.74,698.65 207.47,697.36 213.19,698.63 218.92,697.37 223.89,698.66 227.28,697.36 231.00,698.63 235.77,697.37 241.50,698.62 246.38,697.39 249.65,698.60 253.21,697.40 257.48,698.59 263.21,697.41 268.93,698.58 274.66,697.42 280.38,698.57 286.11,697.43 291.83,698.57 297.56,697.44 303.28,698.56 309.01,697.44 314.73,698.55 320.46,697.45 326.18,698.55 331.91,697.46 337.63,698.58 343.36,697.43 349.08,698.88 354.81,162.70 360.53,121.17 366.26,122.85 371.98,121.17 377.71,122.82 383.43,121.19 389.16,122.80 394.88,121.21 400.61,122.78 406.33,121.23 412.06,122.76 417.78,121.25 423.51,122.74 429.23,121.28 434.96,122.71 440.68,121.30 445.75,122.69 449.36,121.32 453.35,122.66 459.07,121.35 464.80,122.63 470.52,121.30 474.65,122.69 479.09,121.33 484.52,122.66 490.24,121.35 495.97,122.64 501.69,121.37 507.42,122.62 513.14,121.38 518.87,122.61 524.59,121.40 530.32,122.59 536.04,121.41 541.77,122.57 547.49,121.36 553.22,121.68 558.94,695.47 564.67,699.61 570.39,696.37 576.12,699.53 581.84,696.45 587.57,699.50 593.29,696.50 599.02,699.46 604.74,696.54 610.47,699.43 616.19,696.57 621.92,699.40 627.64,696.60 633.37,699.37 639.09,696.63 644.82,699.35 650.54,696.65 656.27,699.33 661.99,696.68 667.72,699.34 672.28,696.67 676.59,699.31 682.31,696.69 688.04,699.29 693.76,696.71 699.49,699.28 705.21,696.73 710.94,699.26 716.66,696.75 722.39,699.24 728.11,696.76 733.84,699.23 739.56,696.78 745.29,699.21 751.01,696.79 756.74,699.20 762.46,696.80 768.19,699.19 773.91,696.82 779.64,699.21 785.36,696.79 791.09,699.39 796.81,689.09 802.54,130.85 808.26,114.37 813.99,129.68 819.71,114.82 825.44,129.19 831.16,115.18 836.89,128.80 842.61,115.52 848.34,128.46 854.06,115.82 859.79,128.14 865.51,116.11 871.24,127.85 876.96,116.38 882.69,127.58 888.41,116.63 894.14,127.33 897.92,116.92 902.08,126.99 907.08,117.19 911.17,126.57 913.91,117.67 916.92,126.20 920.46,117.97 926.19,125.98 931.91,118.13 937.64,125.82 943.36,118.28 949.09,125.67 954.81,118.42 960.54,125.53 966.26,118.55 971.99,125.40 977.71,118.66 983.44,125.29 989.16,118.69 994.89,125.27 1000.61,670.23 1006.34,700.15 1012.06,695.86 1017.79,700.12 1023.51,695.86 1029.24,700.12 1034.96,695.88 1040.69,700.10 1046.41,695.91 1052.14,700.07 1057.86,695.93 1063.59,700.05 1069.31,695.95 1075.04,700.03 1080.76,695.98 1086.49,700.00 1092.21,696.00 1097.94,699.98 1103.66,696.02 1109.39,699.96 1115.11,696.08 1119.83,699.90 1124.31,696.11 1130.03,699.88 1135.76,696.13 1141.48,699.86 1147.21,696.15 1152.93,699.84 1158.66,696.16 1164.38,699.82 1170.11,696.18 1175.83,699.80 1181.56,696.20 1187.28,699.78 1193.01,696.22 1198.73,699.77 1204.46,696.24 1210.18,699.75 1215.91,696.26 1221.63,699.75 1227.36,696.27 1233.08,699.83 1238.81,695.18 1244.53,135.77 1250.26,112.92 1255.98,131.19 1261.71,113.42 1267.43,130.63 1273.16,113.83 1278.88,130.18 1284.61,114.21 1290.33,129.78 1296.06,114.56 1301.78,129.42 1307.51,114.89 1313.23,129.08 1318.96,115.20 1324.68,128.76 1330.41,115.49 1336.13,128.47 1341.86,115.77 1347.58,128.19 1353.31,115.92 1356.93,127.95 1360.99,116.29 1366.00,127.64 1371.73,116.54 1377.45,127.41 1383.18,116.75 1388.90,127.20 1394.63,116.95 1400.35,127.00 1406.08,117.14 1411.80,126.81 1417.53,117.30 1423.25,126.64 1428.98,117.42 1434.70,126.53 1440.43,113.09 1446.15,697.66 1451.88,698.02 1457.60,698.02 1463.33,697.95 1469.05,698.05 1474.78,697.94 1480.50,698.07 1486.23,697.92 1491.95,698.09 1497.68,697.90 1503.40,698.11 1509.13,697.89 1514.85,698.12 1520.58,697.88 1526.30,698.13 1532.03,697.87 1537.75,698.14 1543.48,697.86 1549.20,698.14 1554.93,697.88 1559.48,698.13 1564.45,697.87 1570.18,698.14 1575.90,697.86 1581.63,698.14 1587.35,697.86 1593.08,698.14 1598.80,697.86 1604.53,698.14 1610.25,697.86 1615.98,698.14 1621.70,697.85 1627.43,698.15 1633.15,697.85 1638.88,698.15 1644.60,697.85 1650.33,698.15 1656.05,697.85 1661.78,698.15 1667.50,697.89 1673.23,698.13 1678.95,697.94 1684.68,684.17 1690.40,125.88 1696.13,118.66 1701.85,125.29 1707.58,118.92 1713.30,125.03 1719.03,119.12 1724.75,124.83 1730.48,119.30 1736.20,124.66 1741.93,119.45 1747.65,124.50 1753.38,119.60 1759.10,124.36 1764.83,119.73 1770.55,124.23 1776.28,119.85 1782.00,124.11 1787.73,119.97 1793.45,124.00 1799.18,119.97 1803.84,123.98 1808.25,120.10 1813.97,123.86 1819.70,120.20 1825.42,123.76 1831.15,120.30 1836.87,123.67 1842.60,120.38 1848.32,123.58 1854.05,120.46 1859.77,123.50 1865.50,120.54 1871.22,123.43 1876.95,120.57 1882.67,123.17 1888.40,687.43 1894.12,699.75 1899.85,696.25 1905.57,699.72 1911.30,696.25 1917.02,699.73 1922.75,696.28 1928.47,699.70 1934.20,696.30 1939.92,699.68 1945.65,696.33 1951.37,699.65 1957.10,696.35 1962.82,699.63 1968.55,696.38 1974.27,699.61 1980.00,696.40 1985.72,699.59 1991.45,696.42 1997.17,699.57 2002.25,696.48 2005.58,699.50 2009.23,696.51 2013.52,699.48 2017.78,696.53 2023.51,699.46 2028.40,696.55 2033.06,699.44 2038.79,696.57 2044.51,699.42 2050.24,696.58 2055.96,699.41 2061.69,696.60 2067.41,699.39 2073.14,696.61 2078.86,699.38 2084.59,696.63 2090.31,699.36 2096.04,696.64 2101.76,699.35 2107.49,696.66 2113.21,699.38 2118.94,696.62 2124.66,700.09 2130.39,126.17 2136.11,122.24 2141.84,121.76 2147.56,122.25 2153.29,121.75 2159.01,122.25 2164.74,121.75 2170.46,122.25 2176.19,121.75 2181.91,122.25 2187.64,121.76 2193.36,122.24 2199.09,121.76 2204.81,122.23 2210.54,121.77 2216.26,122.23 2221.99,121.78 2227.71,122.22 2232.93,121.79 2238.66,122.21 2243.67,121.68 2246.99,122.31 2250.62,121.71 2255.06,122.28 2260.79,121.72 2266.51,122.27 2272.24,121.74 2277.96,122.26 2283.69,121.75 2289.41,122.24 2295.14,121.76 2300.86,122.23 2306.59,121.77 2312.31,122.22 2318.04,121.76 2323.76,122.15 2329.49,120.97 2335.21,696.50 2340.94,699.22 2346.66,696.77 2352.39,699.12 2358.11,696.87 2363.84,699.08 2369.56,696.92 2375.29,699.05 2381.01,696.95 2386.74,699.02 2392.46,696.98 2398.19,698.99 2403.91,697.01 2409.64,698.97 2415.36,697.03 2421.09,698.95 2426.81,697.05 2432.54,698.94 2438.26,697.07 2443.24,698.96 2446.51,697.05 2450.09,698.94 2454.31,697.07 2460.04,698.92 2465.76,697.08 2471.49,698.91 2477.15,697.09 2482.88,698.90 2488.60,697.11 2494.33,698.89 2500.05,697.12 2505.78,698.88 2511.50,697.13 2517.23,698.87 2522.95,697.14 2528.68,698.86 2534.40,697.15 2540.13,698.85 2545.85,697.15 2551.58,698.84 2557.30,697.19 2563.03,698.85 2568.75,697.07 2574.48,137.70 2580.20,115.95 2585.93,128.02 2591.65,116.27 2597.38,127.69 2603.10,116.53 2608.83,127.43 2614.55,116.77 2620.28,127.19 2626.00,116.99 2631.73,126.96 2637.45,117.20 2643.18,126.75 2648.90,117.39 2654.63,126.56 2660.35,117.58 2666.08,126.37 2671.80,117.75 2677.53,126.20 2683.25,117.91 2688.98,125.94 2692.76,118.20 2696.91,125.73 2702.02,118.37 2707.75,125.58 2713.47,118.50 2719.20,125.45 2724.92,118.63 2730.65,125.33 2736.37,118.74 2742.10,125.22 2747.82,118.84 2753.55,125.12 2759.27,118.92 2765.00,125.04 2770.72,117.06 2776.45,696.27 2782.17,698.43 2787.90,697.59 2793.62,698.39 2799.35,697.59 2805.07,698.40 2810.80,697.61 2816.52,698.38 2822.25,697.63 2827.97,698.36 2833.70,697.64 2839.42,698.35 2845.15,697.66 2850.87,698.34 2856.60,697.67 2862.32,698.32 2868.05,697.68 2873.77,698.31 2879.50,697.69 2885.22,698.31 2890.95,697.73 2894.78,698.27 2898.91,697.74 2903.96,698.26 2909.69,697.75 2913.12,698.25 2917.02,697.75 2921.81,698.24 2927.53,697.76 2933.26,698.24 2938.98,697.76 2944.71,698.23 2950.43,697.77 2956.16,698.23 2961.88,697.77 2967.61,698.23 2973.33,697.78 2979.06,698.22 2984.78,697.78 2990.51,698.22 2996.23,697.79 3001.96,698.25 3007.68,697.78 3013.41,698.74 3019.13,128.66 3024.86,118.30 3030.58,125.65 3036.31,118.56 3042.03,125.39 3047.76,118.76 3053.48,125.19 3059.21,118.93 3064.93,125.02 3070.66,119.08 3076.38,124.87 3082.11,119.22 3087.83,124.73 3093.56,119.35 3099.28,124.61 3105.01,119.47 3110.73,124.49 3115.75,119.59 3120.59,124.36 3126.32,119.70 3131.25,124.13 3134.53,119.96 3138.11,123.99 3142.42,120.07 3148.15,123.90 3153.87,120.15 3159.60,123.82 3165.32,120.22 3171.05,123.76 3176.77,120.28 3182.50,123.69 3188.22,120.35 3193.95,123.63 3199.67,120.40 3205.40,123.57 3211.12,120.32 3216.85,124.00 3222.57,695.86 3228.30,699.77 3234.02,696.20 3239.75,699.67 3245.47,696.32 3251.20,699.62 3256.92,696.37 3262.65,699.58 3268.37,696.41 3274.10,699.55 3279.82,696.45 3285.55,699.52 3291.27,696.48 3297.00,699.49 3302.72,696.51 3308.45,699.47 3314.17,696.53 3319.90,699.44 3325.62,696.56 3330.64,699.46 3333.93,696.55 3337.56,699.43 3341.84,696.58 3347.57,699.41 3353.29,696.60 3359.02,699.39 3364.74,696.61 3370.47,699.37 3376.19,696.63 3381.92,699.36 3387.64,696.65 3393.37,699.34 3399.09,696.66 3404.82,699.33 3410.54,696.68 3416.27,699.31 3421.99,696.69 3427.72,699.30 3433.44,696.70 3439.17,699.29 3444.89,696.74 3450.62,699.32 3456.34,696.38 3462.07,139.68 3467.79,114.50 3473.52,129.50 3479.24,114.88 3484.97,129.10 3490.69,115.20 3496.42,128.77 3502.14,115.49 3507.87,128.47 3513.59,115.77 3519.32,128.19 3525.04,116.02 3530.77,127.93 3536.49,116.26 3542.22,127.69" fill="none" stroke="#cc3311" stroke-width="3.0" stroke-opacity="0.88" stroke-linejoin="round" stroke-linecap="round"/>
<line x1="369" y1="116" x2="417" y2="116" stroke="#cc3311" stroke-width="5" stroke-opacity="0.88"/>
<text x="429" y="122" font-family="Arial" font-size="18" fill="#222222">uo_out[1]</text>
<polyline points="110.14,125.08 115.87,119.11 121.59,124.85 127.32,119.23 133.04,124.73 138.77,119.34 144.49,124.62 150.22,119.44 155.94,124.52 161.67,119.54 167.39,124.42 173.12,119.63 178.84,124.33 184.57,119.72 190.29,124.25 196.02,119.80 201.74,124.17 207.47,119.86 213.19,124.10 218.92,118.79 223.89,665.32 227.28,698.15 231.00,697.76 235.77,698.28 241.50,697.71 246.38,697.88 249.65,698.10 253.21,697.92 257.48,698.07 263.21,697.94 268.93,698.05 274.66,697.96 280.38,698.04 286.11,697.97 291.83,698.03 297.56,697.98 303.28,698.02 309.01,697.99 314.73,698.01 320.46,698.00 326.18,698.00 331.91,698.00 337.63,697.99 343.36,698.01 349.08,697.99 354.81,697.98 360.53,698.01 366.26,697.99 371.98,698.01 377.71,698.00 383.43,698.00 389.16,698.00 394.88,698.00 400.61,698.00 406.33,697.99 412.06,698.01 417.78,697.99 423.51,698.01 429.23,697.99 434.96,698.02 440.68,697.98 445.75,698.39 449.36,697.69 453.35,698.33 459.07,697.74 464.80,602.53 470.52,124.38 474.65,120.00 479.09,123.93 484.52,120.20 490.24,123.76 495.97,120.32 501.69,123.64 507.42,120.42 513.14,123.54 518.87,120.51 524.59,123.46 530.32,120.59 536.04,123.38 541.77,120.67 547.49,123.30 553.22,120.74 558.94,123.34 564.67,120.70 570.39,123.28 576.12,120.76 581.84,123.22 587.57,120.82 593.29,123.16 599.02,120.87 604.74,123.10 610.47,120.93 616.19,123.05 621.92,120.97 627.64,123.01 633.37,121.02 639.09,122.96 644.82,121.06 650.54,122.92 656.27,121.07 661.99,122.65 667.72,657.20 672.28,699.16 676.59,696.84 682.31,699.18 688.04,696.48 693.76,699.51 699.49,696.50 705.21,699.49 710.94,696.52 716.66,699.48 722.39,696.53 728.11,699.46 733.84,696.55 739.56,699.44 745.29,696.57 751.01,699.42 756.74,696.59 762.46,699.40 768.19,696.61 773.91,699.38 779.64,696.63 785.36,699.36 791.09,696.64 796.81,699.34 802.54,696.63 808.26,699.36 813.99,696.65 819.71,699.34 825.44,696.67 831.16,699.32 836.89,696.69 842.61,699.30 848.34,696.70 854.06,699.28 859.79,696.72 865.51,699.27 871.24,696.74 876.96,699.25 882.69,696.76 888.41,699.26 894.14,697.08 897.92,698.95 902.08,697.07 907.08,700.49 911.17,127.90 913.91,120.20 916.92,123.80 920.46,120.28 926.19,123.70 931.91,120.34 937.64,123.63 943.36,120.40 949.09,123.57 954.81,120.47 960.54,123.51 966.26,120.53 971.99,123.45 977.71,120.59 983.44,123.39 989.16,120.64 994.89,123.33 1000.61,120.80 1006.34,123.19 1012.06,120.84 1017.79,123.14 1023.51,120.89 1029.24,123.09 1034.96,120.93 1040.69,123.05 1046.41,120.97 1052.14,123.01 1057.86,121.01 1063.59,122.97 1069.31,121.05 1075.04,122.94 1080.76,121.08 1086.49,122.91 1092.21,121.10 1097.94,122.88 1103.66,120.99 1109.39,123.25 1115.11,695.97 1119.83,699.69 1124.31,696.31 1130.03,699.59 1135.76,696.06 1141.48,699.87 1147.21,696.13 1152.93,699.81 1158.66,696.19 1164.38,699.76 1170.11,696.25 1175.83,699.71 1181.56,696.30 1187.28,699.67 1193.01,696.34 1198.73,699.63 1204.46,696.38 1210.18,699.59 1215.91,696.42 1221.63,699.55 1227.36,696.45 1233.08,699.52 1238.81,696.49 1244.53,699.46 1250.26,696.55 1255.98,699.43 1261.71,696.58 1267.43,699.40 1273.16,696.61 1278.88,699.38 1284.61,696.63 1290.33,699.35 1296.06,696.65 1301.78,699.33 1307.51,696.68 1313.23,699.31 1318.96,696.70 1324.68,699.29 1330.41,696.72 1336.13,699.65 1341.86,696.35 1347.58,700.25 1353.31,138.27 1356.93,124.71 1360.99,119.75 1366.00,124.18 1371.73,119.95 1377.45,124.00 1383.18,120.09 1388.90,123.86 1394.63,120.22 1400.35,123.74 1406.08,120.33 1411.80,123.63 1417.53,120.43 1423.25,123.53 1428.98,120.52 1434.70,123.44 1440.43,120.61 1446.15,123.46 1451.88,120.59 1457.60,123.38 1463.33,120.67 1469.05,123.30 1474.78,120.75 1480.50,123.22 1486.23,120.82 1491.95,123.15 1497.68,120.89 1503.40,123.08 1509.13,120.95 1514.85,123.02 1520.58,121.01 1526.30,122.96 1532.03,121.07 1537.75,122.90 1543.48,121.09 1549.20,122.68 1554.93,550.03 1559.48,698.65 1564.45,697.33 1570.18,698.69 1575.90,696.96 1581.63,699.03 1587.35,696.99 1593.08,699.01 1598.80,697.00 1604.53,698.99 1610.25,697.03 1615.98,698.97 1621.70,697.05 1627.43,698.94 1633.15,697.07 1638.88,698.92 1644.60,697.09 1650.33,698.90 1656.05,697.11 1661.78,698.88 1667.50,697.13 1673.23,698.86 1678.95,697.15 1684.68,698.84 1690.40,697.14 1696.13,698.85 1701.85,697.16 1707.58,698.83 1713.30,697.18 1719.03,698.81 1724.75,697.20 1730.48,698.79 1736.20,697.22 1741.93,698.77 1747.65,697.24 1753.38,698.75 1759.10,697.26 1764.83,698.73 1770.55,697.27 1776.28,698.88 1782.00,697.33 1787.73,698.73 1793.45,697.18 1799.18,131.31 1803.84,116.20 1808.25,127.73 1813.97,116.63 1819.70,127.33 1825.42,116.92 1831.15,127.03 1836.87,117.18 1842.60,126.77 1848.32,117.42 1854.05,126.52 1859.77,117.65 1865.50,126.30 1871.22,117.86 1876.95,126.09 1882.67,118.05 1888.40,126.00 1894.12,118.14 1899.85,125.81 1905.57,118.32 1911.30,125.63 1917.02,118.49 1922.75,125.46 1928.47,118.64 1934.20,125.30 1939.92,118.79 1945.65,125.16 1951.37,118.93 1957.10,125.02 1962.82,119.06 1968.55,124.89 1974.27,119.18 1980.00,124.77 1985.72,119.25 1991.45,124.68 1997.17,124.51 2002.25,697.17 2005.58,698.56 2009.23,697.47 2013.52,698.49 2017.78,697.41 2023.51,698.30 2028.40,697.70 2033.06,698.29 2038.79,697.71 2044.51,698.29 2050.24,697.71 2055.96,698.29 2061.69,697.71 2067.41,698.29 2073.14,697.71 2078.86,698.29 2084.59,697.71 2090.31,698.29 2096.04,697.71 2101.76,698.29 2107.49,697.71 2113.21,698.29 2118.94,697.71 2124.66,698.29 2130.39,697.67 2136.11,698.33 2141.84,697.67 2147.56,698.33 2153.29,697.67 2159.01,698.33 2164.74,697.67 2170.46,698.33 2176.19,697.67 2181.91,698.33 2187.64,697.67 2193.36,698.33 2199.09,697.66 2204.81,698.34 2210.54,697.66 2216.26,698.34 2221.99,698.03 2227.71,697.99 2232.93,698.07 2238.66,696.55 2243.67,128.30 2246.99,117.50 2250.62,126.36 2255.06,117.97 2260.79,125.97 2266.51,118.22 2272.24,125.73 2277.96,118.43 2283.69,125.51 2289.41,118.62 2295.14,125.32 2300.86,118.80 2306.59,125.14 2312.31,118.97 2318.04,124.98 2323.76,119.13 2329.49,124.82 2335.21,119.38 2340.94,124.58 2346.66,119.51 2352.39,124.45 2358.11,119.63 2363.84,124.32 2369.56,119.75 2375.29,124.21 2381.01,119.86 2386.74,124.10 2392.46,119.96 2398.19,124.00 2403.91,120.06 2409.64,123.90 2415.36,120.15 2421.09,123.82 2426.81,120.22 2432.54,123.73 2438.26,118.76 2443.24,693.53 2446.51,698.67 2450.09,697.30 2454.31,698.72 2460.04,697.28 2465.76,698.37 2471.49,697.61 2477.15,698.40 2482.88,697.59 2488.60,698.42 2494.33,697.57 2500.05,698.44 2505.78,697.55 2511.50,698.46 2517.23,697.53 2522.95,698.48 2528.68,697.52 2534.40,698.49 2540.13,697.50 2545.85,698.50 2551.58,697.49 2557.30,698.52 2563.03,697.48 2568.75,698.53 2574.48,697.43 2580.20,698.57 2585.93,697.43 2591.65,698.57 2597.38,697.42 2603.10,698.58 2608.83,697.42 2614.55,698.59 2620.28,697.41 2626.00,698.59 2631.73,697.41 2637.45,698.59 2643.18,697.40 2648.90,698.60 2654.63,697.40 2660.35,698.60 2666.08,697.76 2671.80,698.26 2677.53,697.80 2683.25,663.14 2688.98,125.37 2692.76,119.18 2696.91,124.71 2702.02,119.47 2707.75,124.47 2713.47,119.65 2719.20,124.29 2724.92,119.80 2730.65,124.14 2736.37,119.94 2742.10,124.01 2747.82,120.07 2753.55,123.88 2759.27,120.19 2765.00,123.77 2770.72,120.29 2776.45,123.77 2782.17,120.29 2787.90,123.66 2793.62,120.39 2799.35,123.56 2805.07,120.49 2810.80,123.47 2816.52,120.58 2822.25,123.39 2827.97,120.66 2833.70,123.30 2839.42,120.74 2845.15,123.23 2850.87,120.81 2856.60,123.15 2862.32,120.88 2868.05,123.08 2873.77,120.92 2879.50,122.93 2885.22,160.88 2890.95,697.15 2894.78,698.71 2898.91,697.30 2903.96,698.67 2909.69,696.97 2913.12,698.99 2917.02,697.01 2921.81,698.97 2927.53,697.04 2933.26,698.95 2938.98,697.05 2944.71,698.93 2950.43,697.07 2956.16,698.92 2961.88,697.08 2967.61,698.91 2973.33,697.10 2979.06,698.90 2984.78,697.11 2990.51,698.89 2996.23,697.12 3001.96,698.88 3007.68,697.13 3013.41,698.87 3019.13,697.10 3024.86,698.89 3030.58,697.11 3036.31,698.88 3042.03,697.12 3047.76,698.87 3053.48,697.13 3059.21,698.86 3064.93,697.14 3070.66,698.86 3076.38,697.15 3082.11,698.85 3087.83,697.16 3093.56,698.84 3099.28,697.16 3105.01,698.83 3110.73,697.54 3115.75,698.49 3120.59,697.55 3126.32,696.63 3131.25,126.65 3134.53,118.71 3138.11,125.14 3142.42,119.13 3148.15,124.81 3153.87,119.33 3159.60,124.62 3165.32,119.49 3171.05,124.45 3176.77,119.64 3182.50,124.31 3188.22,119.78 3193.95,124.17 3199.67,119.90 3205.40,124.05 3211.12,120.02 3216.85,123.94 3222.57,120.23 3228.30,123.73 3234.02,120.33 3239.75,123.63 3245.47,120.42 3251.20,123.54 3256.92,120.51 3262.65,123.46 3268.37,120.59 3274.10,123.38 3279.82,120.66 3285.55,123.30 3291.27,120.74 3297.00,123.23 3302.72,120.80 3308.45,123.17 3314.17,120.86 3319.90,123.09 3325.62,119.79 3330.64,692.49 3333.93,698.88 3337.56,697.10 3341.84,698.93 3347.57,697.07 3353.29,698.57 3359.02,697.41 3364.74,698.60 3370.47,697.39 3376.19,698.62 3381.92,697.37 3387.64,698.64 3393.37,697.36 3399.09,698.65 3404.82,697.34 3410.54,698.66 3416.27,697.33 3421.99,698.67 3427.72,697.32 3433.44,698.68 3439.17,697.31 3444.89,698.69 3450.62,697.30 3456.34,698.70 3462.07,697.26 3467.79,698.74 3473.52,697.26 3479.24,698.74 3484.97,697.26 3490.69,698.75 3496.42,697.25 3502.14,698.75 3507.87,697.25 3513.59,698.75 3519.32,697.25 3525.04,698.75 3530.77,697.25 3536.49,698.75 3542.22,697.25" fill="none" stroke="#009988" stroke-width="3.0" stroke-opacity="0.88" stroke-linejoin="round" stroke-linecap="round"/>
<line x1="604" y1="116" x2="652" y2="116" stroke="#009988" stroke-width="5" stroke-opacity="0.88"/>
<text x="664" y="122" font-family="Arial" font-size="18" fill="#222222">uo_out[2]</text>
<polyline points="110.14,698.62 115.87,697.38 121.59,698.62 127.32,697.38 133.04,698.62 138.77,697.38 144.49,698.62 150.22,697.38 155.94,698.62 161.67,697.38 167.39,698.62 173.12,697.38 178.84,698.62 184.57,697.38 190.29,698.62 196.02,697.38 201.74,698.62 207.47,697.38 213.19,698.62 218.92,697.38 223.89,699.01 227.28,697.03 231.00,698.99 235.77,697.03 241.50,700.49 246.38,126.78 249.65,119.36 253.21,124.52 257.48,119.67 263.21,124.28 268.93,119.82 274.66,124.13 280.38,119.95 286.11,124.01 291.83,120.06 297.56,123.90 303.28,120.17 309.01,123.79 314.73,120.26 320.46,123.70 326.18,120.35 331.91,123.61 337.63,120.43 343.36,123.53 349.08,120.51 354.81,123.46 360.53,120.58 366.26,123.39 371.98,120.65 377.71,123.32 383.43,120.72 389.16,123.26 394.88,120.78 400.61,123.20 406.33,120.83 412.06,123.15 417.78,120.88 423.51,123.09 429.23,120.92 434.96,123.03 440.68,120.29 445.75,632.33 449.36,698.61 453.35,697.34 459.07,698.70 464.80,697.24 470.52,698.47 474.65,697.52 479.09,698.49 484.52,697.50 490.24,698.50 495.97,697.49 501.69,698.51 507.42,697.49 513.14,698.52 518.87,697.48 524.59,698.52 530.32,697.48 536.04,698.52 541.77,697.48 547.49,698.52 553.22,697.48 558.94,698.53 564.67,697.48 570.39,698.53 576.12,697.48 581.84,698.52 587.57,697.48 593.29,698.52 599.02,697.48 604.74,698.52 610.47,697.48 616.19,698.52 621.92,697.48 627.64,698.52 633.37,697.48 639.09,698.51 644.82,697.49 650.54,698.51 656.27,697.49 661.99,698.51 667.72,697.83 672.28,698.21 676.59,697.81 682.31,698.47 688.04,141.12 693.76,118.66 699.49,125.28 705.21,118.85 710.94,125.10 716.66,119.01 722.39,124.94 728.11,119.16 733.84,124.79 739.56,119.29 745.29,124.65 751.01,119.42 756.74,124.53 762.46,119.55 768.19,124.40 773.91,119.66 779.64,124.29 785.36,119.77 791.09,124.18 796.81,119.87 802.54,124.08 808.26,119.97 813.99,123.99 819.71,120.06 825.44,123.90 831.16,120.15 836.89,123.81 842.61,120.23 848.34,123.73 854.06,120.31 859.79,123.66 865.51,120.37 871.24,123.60 876.96,120.40 882.69,123.50 888.41,162.18 894.14,697.09 897.92,698.76 902.08,697.26 907.08,698.71 911.17,696.80 913.91,699.15 916.92,696.87 920.46,699.09 926.19,696.91 931.91,699.07 937.64,696.94 943.36,699.05 949.09,696.96 954.81,699.03 960.54,696.98 966.26,699.01 971.99,697.00 977.71,698.99 983.44,697.02 989.16,698.97 994.89,697.04 1000.61,698.95 1006.34,697.06 1012.06,698.93 1017.79,697.07 1023.51,698.92 1029.24,697.09 1034.96,698.90 1040.69,697.10 1046.41,698.89 1052.14,697.12 1057.86,698.88 1063.59,697.13 1069.31,698.86 1075.04,697.14 1080.76,698.85 1086.49,697.16 1092.21,698.84 1097.94,697.17 1103.66,698.83 1109.39,697.18 1115.11,699.19 1119.83,696.82 1124.31,699.38 1130.03,669.63 1135.76,130.35 1141.48,114.67 1147.21,129.35 1152.93,115.12 1158.66,128.85 1164.38,115.51 1170.11,128.44 1175.83,115.87 1181.56,128.07 1187.28,116.20 1193.01,127.74 1198.73,116.51 1204.46,127.43 1210.18,116.80 1215.91,127.14 1221.63,117.07 1227.36,126.87 1233.08,117.32 1238.81,126.62 1244.53,117.56 1250.26,126.38 1255.98,117.78 1261.71,126.16 1267.43,117.99 1273.16,125.95 1278.88,118.18 1284.61,125.76 1290.33,118.36 1296.06,125.58 1301.78,118.53 1307.51,125.41 1313.23,118.68 1318.96,125.26 1324.68,118.64 1330.41,126.05 1336.13,694.38 1341.86,700.81 1347.58,695.12 1353.31,700.37 1356.93,695.61 1360.99,700.29 1366.00,695.71 1371.73,700.23 1377.45,695.77 1383.18,700.18 1388.90,695.82 1394.63,700.13 1400.35,695.87 1406.08,700.09 1411.80,695.91 1417.53,700.05 1423.25,695.95 1428.98,700.02 1434.70,695.99 1440.43,699.98 1446.15,696.02 1451.88,699.95 1457.60,696.06 1463.33,699.92 1469.05,696.09 1474.78,699.89 1480.50,696.12 1486.23,699.86 1491.95,696.15 1497.68,699.83 1503.40,696.18 1509.13,699.80 1514.85,696.20 1520.58,699.78 1526.30,696.23 1532.03,699.75 1537.75,696.25 1543.48,699.73 1549.20,696.28 1554.93,699.99 1559.48,696.14 1564.45,699.92 1570.18,695.68 1575.90,148.16 1581.63,113.07 1587.35,130.91 1593.08,113.57 1598.80,130.40 1604.53,113.99 1610.25,129.97 1615.98,114.38 1621.70,129.57 1627.43,114.75 1633.15,129.20 1638.88,115.09 1644.60,128.85 1650.33,115.42 1656.05,128.52 1661.78,115.72 1667.50,128.21 1673.23,116.01 1678.95,127.92 1684.68,116.28 1690.40,127.65 1696.13,116.54 1701.85,127.39 1707.58,116.78 1713.30,127.15 1719.03,117.00 1724.75,126.93 1730.48,117.22 1736.20,126.72 1741.93,117.41 1747.65,126.52 1753.38,117.58 1759.10,126.35 1764.83,117.65 1770.55,126.31 1776.28,373.48 1782.00,699.33 1787.73,696.69 1793.45,699.34 1799.18,696.31 1803.84,699.69 1808.25,696.33 1813.97,699.66 1819.70,696.36 1825.42,699.63 1831.15,696.38 1836.87,699.61 1842.60,696.41 1848.32,699.58 1854.05,696.43 1859.77,699.56 1865.50,696.46 1871.22,699.53 1876.95,696.48 1882.67,699.51 1888.40,696.51 1894.12,699.48 1899.85,696.53 1905.57,699.46 1911.30,696.56 1917.02,699.43 1922.75,696.58 1928.47,699.41 1934.20,696.60 1939.92,699.38 1945.65,696.63 1951.37,699.36 1957.10,696.65 1962.82,699.34 1968.55,696.67 1974.27,699.32 1980.00,696.69 1985.72,699.30 1991.45,696.71 1997.17,699.28 2002.25,697.13 2005.58,698.89 2009.23,697.14 2013.52,699.32 2017.78,556.06 2023.51,127.17 2028.40,117.43 2033.06,126.49 2038.79,117.77 2044.51,126.18 2050.24,118.01 2055.96,125.93 2061.69,118.23 2067.41,125.71 2073.14,118.44 2078.86,125.51 2084.59,118.62 2090.31,125.32 2096.04,118.80 2101.76,125.15 2107.49,118.96 2113.21,124.99 2118.94,119.11 2124.66,124.84 2130.39,119.25 2136.11,124.70 2141.84,119.38 2147.56,124.57 2153.29,119.51 2159.01,124.45 2164.74,119.63 2170.46,124.33 2176.19,119.73 2181.91,124.23 2187.64,119.84 2193.36,124.13 2199.09,119.93 2204.81,124.04 2210.54,119.94 2216.26,123.87 2221.99,692.56 2227.71,700.30 2232.93,695.68 2238.66,700.24 2243.67,695.34 2246.99,700.57 2250.62,695.45 2255.06,700.49 2260.79,695.51 2266.51,700.44 2272.24,695.56 2277.96,700.40 2283.69,695.61 2289.41,700.35 2295.14,695.65 2300.86,700.31 2306.59,695.70 2312.31,700.27 2318.04,695.74 2323.76,700.23 2329.49,695.77 2335.21,700.20 2340.94,695.81 2346.66,700.16 2352.39,695.85 2358.11,700.13 2363.84,695.88 2369.56,700.10 2375.29,695.91 2381.01,700.07 2386.74,695.94 2392.46,700.04 2398.19,695.97 2403.91,700.01 2409.64,696.00 2415.36,699.98 2421.09,696.03 2426.81,699.95 2432.54,696.06 2438.26,699.92 2443.24,696.50 2446.51,699.50 2450.09,696.51 2454.31,699.62 2460.04,694.20 2465.76,133.10 2471.49,113.03 2477.15,131.06 2482.88,113.60 2488.60,130.43 2494.33,114.06 2500.05,129.94 2505.78,114.48 2511.50,129.49 2517.23,114.87 2522.95,129.09 2528.68,115.24 2534.40,128.72 2540.13,115.58 2545.85,128.38 2551.58,115.89 2557.30,128.06 2563.03,116.19 2568.75,127.76 2574.48,116.47 2580.20,127.48 2585.93,116.73 2591.65,127.22 2597.38,116.97 2603.10,126.97 2608.83,117.20 2614.55,126.74 2620.28,117.41 2626.00,126.53 2631.73,117.61 2637.45,126.33 2643.18,117.78 2648.90,126.16 2654.63,117.81 2660.35,126.55 2666.08,692.34 2671.80,701.00 2677.53,694.94 2683.25,700.91 2688.98,694.71 2692.76,701.17 2696.91,694.83 2702.02,701.09 2707.75,694.90 2713.47,701.04 2719.20,694.96 2724.92,700.99 2730.65,695.01 2736.37,700.94 2742.10,695.06 2747.82,700.89 2753.55,695.11 2759.27,700.85 2765.00,695.16 2770.72,700.80 2776.45,695.20 2782.17,700.76 2787.90,695.25 2793.62,700.72 2799.35,695.29 2805.07,700.68 2810.80,695.33 2816.52,700.64 2822.25,695.36 2827.97,700.61 2833.70,695.40 2839.42,700.57 2845.15,695.44 2850.87,700.54 2856.60,695.47 2862.32,700.50 2868.05,695.50 2873.77,700.47 2879.50,695.54 2885.22,700.47 2890.95,695.87 2894.78,700.18 2898.91,695.76 2903.96,703.64 2909.69,121.55 2913.12,122.89 2917.02,121.01 2921.81,123.04 2927.53,120.93 2933.26,123.07 2938.98,120.91 2944.71,123.08 2950.43,120.91 2956.16,123.08 2961.88,120.92 2967.61,123.07 2973.33,120.94 2979.06,123.05 2984.78,120.95 2990.51,123.04 2996.23,120.97 3001.96,123.02 3007.68,120.99 3013.41,123.00 3019.13,121.01 3024.86,122.98 3030.58,121.03 3036.31,122.96 3042.03,121.05 3047.76,122.94 3053.48,121.07 3059.21,122.93 3064.93,121.08 3070.66,122.91 3076.38,121.09 3082.11,122.90 3087.83,121.10 3093.56,122.89 3099.28,121.00 3105.01,122.18 3110.73,695.09 3115.75,700.06 3120.59,695.92 3126.32,699.98 3131.25,695.59 3134.53,700.30 3138.11,695.71 3142.42,700.22 3148.15,695.78 3153.87,700.17 3159.60,695.83 3165.32,700.13 3171.05,695.87 3176.77,700.09 3182.50,695.92 3188.22,700.05 3193.95,695.96 3199.67,700.01 3205.40,695.99 3211.12,699.98 3216.85,696.03 3222.57,699.95 3228.30,696.06 3234.02,699.92 3239.75,696.09 3245.47,699.89 3251.20,696.12 3256.92,699.86 3262.65,696.15 3268.37,699.83 3274.10,696.18 3279.82,699.80 3285.55,696.20 3291.27,699.78 3297.00,696.23 3302.72,699.75 3308.45,696.25 3314.17,699.73 3319.90,696.28 3325.62,699.71 3330.64,696.71 3333.93,699.29 3337.56,696.72 3341.84,699.41 3347.57,694.45 3353.29,132.37 3359.02,113.53 3364.74,130.54 3370.47,114.07 3376.19,129.95 3381.92,114.51 3387.64,129.48 3393.37,114.91 3399.09,129.06 3404.82,115.28 3410.54,128.68 3416.27,115.63 3421.99,128.33 3427.72,115.95 3433.44,128.01 3439.17,116.24 3444.89,127.70 3450.62,116.52 3456.34,127.42 3462.07,116.78 3467.79,127.16 3473.52,117.03 3479.24,126.91 3484.97,117.26 3490.69,126.68 3496.42,117.48 3502.14,126.47 3507.87,117.68 3513.59,126.27 3519.32,117.86 3525.04,126.08 3530.77,118.03 3536.49,125.92 3542.22,118.05" fill="none" stroke="#ee9900" stroke-width="3.0" stroke-opacity="0.88" stroke-linejoin="round" stroke-linecap="round"/>
<line x1="839" y1="116" x2="887" y2="116" stroke="#ee9900" stroke-width="5" stroke-opacity="0.88"/>
<text x="899" y="122" font-family="Arial" font-size="18" fill="#222222">uo_out[3]</text>
<text x="1800.0" y="795" text-anchor="middle" font-family="Arial" font-size="18" fill="#222222">time (us)</text>
<text x="30" y="410.0" transform="rotate(-90 30 410.0)" text-anchor="middle" font-family="Arial" font-size="18" fill="#222222">voltage (V)</text>
</svg>