<svg xmlns="http://www.w3.org/2000/svg" viewBox="0 0 3600 820" width="3600" height="820">
<rect width="100%" height="100%" fill="white"/>
<text x="110" y="42" font-family="Arial, sans-serif" font-size="32" font-weight="700" fill="#222222">Oscillator core waveforms overlay zoom</text>
<text x="110" y="70" font-family="Arial, sans-serif" font-size="17" fill="#555">Overlay view, 0.20-0.80 us, shared 0-1.8 V axis</text>
<line x1="110.00" y1="90" x2="110.00" y2="730" stroke="#e7e7e7"/>
<text x="110.00" y="764" text-anchor="middle" font-family="Arial" font-size="16" fill="#222222">0.200</text>
<line x1="396.25" y1="90" x2="396.25" y2="730" stroke="#e7e7e7"/>
<text x="396.25" y="764" text-anchor="middle" font-family="Arial" font-size="16" fill="#222222">0.250</text>
<line x1="682.50" y1="90" x2="682.50" y2="730" stroke="#e7e7e7"/>
<text x="682.50" y="764" text-anchor="middle" font-family="Arial" font-size="16" fill="#222222">0.300</text>
<line x1="968.75" y1="90" x2="968.75" y2="730" stroke="#e7e7e7"/>
<text x="968.75" y="764" text-anchor="middle" font-family="Arial" font-size="16" fill="#222222">0.350</text>
<line x1="1255.00" y1="90" x2="1255.00" y2="730" stroke="#e7e7e7"/>
<text x="1255.00" y="764" text-anchor="middle" font-family="Arial" font-size="16" fill="#222222">0.400</text>
<line x1="1541.25" y1="90" x2="1541.25" y2="730" stroke="#e7e7e7"/>
<text x="1541.25" y="764" text-anchor="middle" font-family="Arial" font-size="16" fill="#222222">0.450</text>
<line x1="1827.50" y1="90" x2="1827.50" y2="730" stroke="#e7e7e7"/>
<text x="1827.50" y="764" text-anchor="middle" font-family="Arial" font-size="16" fill="#222222">0.500</text>
<line x1="2113.75" y1="90" x2="2113.75" y2="730" stroke="#e7e7e7"/>
<text x="2113.75" y="764" text-anchor="middle" font-family="Arial" font-size="16" fill="#222222">0.550</text>
<line x1="2400.00" y1="90" x2="2400.00" y2="730" stroke="#e7e7e7"/>
<text x="2400.00" y="764" text-anchor="middle" font-family="Arial" font-size="16" fill="#222222">0.600</text>
<line x1="2686.25" y1="90" x2="2686.25" y2="730" stroke="#e7e7e7"/>
<text x="2686.25" y="764" text-anchor="middle" font-family="Arial" font-size="16" fill="#222222">0.650</text>
<line x1="2972.50" y1="90" x2="2972.50" y2="730" stroke="#e7e7e7"/>
<text x="2972.50" y="764" text-anchor="middle" font-family="Arial" font-size="16" fill="#222222">0.700</text>
<line x1="3258.75" y1="90" x2="3258.75" y2="730" stroke="#e7e7e7"/>
<text x="3258.75" y="764" text-anchor="middle" font-family="Arial" font-size="16" fill="#222222">0.750</text>
<line x1="3545.00" y1="90" x2="3545.00" y2="730" stroke="#e7e7e7"/>
<text x="3545.00" y="764" text-anchor="middle" font-family="Arial" font-size="16" fill="#222222">0.800</text>
<line x1="110" y1="698.00" x2="3545" y2="698.00" stroke="#e7e7e7"/>
<text x="94" y="703.00" text-anchor="end" font-family="Arial" font-size="15" fill="#555">0 V</text>
<line x1="110" y1="554.00" x2="3545" y2="554.00" stroke="#e7e7e7"/>
<text x="94" y="559.00" text-anchor="end" font-family="Arial" font-size="15" fill="#555">0.45 V</text>
<line x1="110" y1="410.00" x2="3545" y2="410.00" stroke="#e7e7e7"/>
<text x="94" y="415.00" text-anchor="end" font-family="Arial" font-size="15" fill="#555">0.9 V</text>
<line x1="110" y1="266.00" x2="3545" y2="266.00" stroke="#e7e7e7"/>
<text x="94" y="271.00" text-anchor="end" font-family="Arial" font-size="15" fill="#555">1.4 V</text>
<line x1="110" y1="122.00" x2="3545" y2="122.00" stroke="#e7e7e7"/>
<text x="94" y="127.00" text-anchor="end" font-family="Arial" font-size="15" fill="#555">1.8 V</text>
<rect x="110" y="90" width="3435" height="640" fill="none" stroke="#222"/>
<polyline points="111.35,623.21 117.08,646.19 122.80,663.93 128.53,676.53 134.25,684.88 139.98,690.12 145.70,693.31 151.43,695.20 157.15,696.31 162.88,696.95 168.60,697.32 174.33,697.46 180.05,697.30 185.78,696.49 191.50,694.59 197.23,691.28 202.95,686.41 208.68,680.07 214.40,672.56 220.13,664.28 225.85,655.65 231.58,646.98 237.30,638.45 243.03,630.08 248.75,621.72 254.48,613.04 260.20,603.59 265.93,592.78 271.65,580.06 277.38,565.07 283.10,547.75 288.83,528.26 294.55,507.03 300.28,484.52 306.00,460.99 311.73,436.52 317.45,411.24 323.18,385.43 328.90,359.55 334.63,334.14 340.35,309.68 346.08,286.63 351.80,265.32 357.53,245.99 363.25,228.72 368.98,213.53 374.70,200.35 380.43,189.06 386.15,179.51 391.88,171.53 397.60,164.93 403.33,159.58 409.05,155.47 414.78,152.88 420.50,152.35 426.23,154.50 431.95,159.73 437.68,168.17 443.40,179.76 449.13,194.35 454.85,211.72 460.58,231.67 466.30,253.99 472.03,278.54 477.75,305.17 483.48,333.75 489.20,364.09 494.93,396.04 500.65,429.36 506.38,463.79 512.10,498.93 517.83,534.28 523.55,568.59 529.28,600.03 535.00,627.16 540.73,649.34 546.45,666.23 552.18,678.09 557.90,685.88 563.63,690.74 569.35,693.67 575.08,695.41 580.80,696.43 586.53,697.03 592.25,697.36 597.98,697.47 603.70,697.22 609.43,696.27 615.15,694.17 620.88,690.62 626.60,685.51 632.33,678.96 638.05,671.30 643.78,662.94 649.50,654.28 655.23,645.62 660.95,637.13 666.68,628.77 672.40,620.38 678.13,611.62 683.85,602.00 689.58,590.92 695.30,577.85 701.03,562.50 706.75,544.82 712.48,525.02 718.20,503.56 723.93,480.88 729.65,457.20 735.38,432.59 741.10,407.21 746.83,381.35 752.55,355.51 758.28,330.22 764.00,305.95 769.73,283.16 775.45,262.15 781.18,243.13 786.90,226.19 792.63,211.33 798.35,198.45 804.08,187.45 809.80,178.16 815.53,170.41 821.25,164.01 826.98,158.85 832.70,154.95 838.43,152.64 844.15,152.50 849.88,155.11 855.60,160.84 861.33,169.78 867.05,181.86 872.78,196.90 878.50,214.70 884.23,235.03 889.95,257.71 895.68,282.60 901.40,309.54 907.13,338.41 912.85,369.02 918.58,401.19 924.30,434.71 930.03,469.28 935.75,504.50 941.48,539.79 947.20,573.77 952.93,604.61 958.65,630.99 964.38,652.35 970.10,668.41 975.83,679.56 981.55,686.81 987.28,691.31 993.00,694.01 998.73,695.61 1004.45,696.55 1010.18,697.09 1015.90,697.39 1021.63,697.46 1027.35,697.13 1033.08,696.03 1038.80,693.71 1044.53,689.92 1050.25,684.57 1055.98,677.82 1061.70,670.02 1067.43,661.59 1073.15,652.91 1078.88,644.27 1084.60,635.80 1090.33,627.46 1096.05,619.04 1101.78,610.18 1107.50,600.37 1113.23,589.01 1118.95,575.59 1124.68,559.87 1130.40,541.83 1136.13,521.74 1141.85,500.07 1147.58,477.22 1153.30,453.39 1159.03,428.64 1164.75,403.16 1170.48,377.27 1176.20,351.49 1181.93,326.32 1187.65,302.26 1193.38,279.73 1199.10,259.02 1204.83,240.33 1210.55,223.72 1216.28,209.17 1222.00,196.60 1227.73,185.88 1233.45,176.84 1239.18,169.31 1244.90,163.12 1250.63,158.15 1256.35,154.47 1262.08,152.46 1267.80,152.71 1273.53,155.80 1279.25,162.04 1284.98,171.48 1290.70,184.03 1296.43,199.52 1302.15,217.73 1307.88,238.45 1313.60,261.49 1319.33,286.70 1325.05,313.96 1330.78,343.11 1336.50,373.98 1342.23,406.39 1347.95,440.09 1353.68,474.78 1359.40,510.07 1365.13,545.28 1370.85,578.88 1376.58,609.07 1382.30,634.69 1388.03,655.23 1393.75,670.47 1399.48,680.93 1405.20,687.67 1410.93,691.83 1416.65,694.32 1422.38,695.80 1428.10,696.66 1433.83,697.15 1439.55,697.42 1445.28,697.44 1451.00,697.02 1456.73,695.75 1462.45,693.22 1468.18,689.18 1473.90,683.59 1479.63,676.65 1485.35,668.72 1491.08,660.23 1496.80,651.55 1502.53,642.93 1508.25,634.49 1513.98,626.15 1519.70,617.69 1525.43,608.71 1531.15,598.70 1536.88,587.04 1542.60,573.28 1548.33,557.18 1554.05,538.80 1559.78,518.43 1565.50,496.54 1571.23,473.53 1576.95,449.55 1582.68,424.67 1588.40,399.10 1594.13,373.19 1599.85,347.47 1605.58,322.45 1611.30,298.60 1617.03,276.34 1622.75,255.94 1628.48,237.58 1634.20,221.30 1639.93,207.06 1645.65,194.79 1651.38,184.35 1657.10,175.56 1662.83,168.25 1668.55,162.26 1674.28,157.48 1680.00,154.03 1685.73,152.33 1691.45,153.00 1697.18,156.57 1702.90,163.31 1708.63,173.25 1714.35,186.28 1720.08,202.22 1725.80,220.83 1731.53,241.92 1737.25,265.31 1742.98,290.86 1748.70,318.43 1754.43,347.86 1760.15,378.98 1765.88,411.61 1771.60,445.49 1777.33,480.30 1783.05,515.64 1788.78,550.72 1794.50,583.89 1800.23,613.42 1805.95,638.27 1811.68,657.98 1817.40,672.41 1823.13,682.21 1828.85,688.47 1834.58,692.31 1840.30,694.61 1846.03,695.96 1851.75,696.75 1857.48,697.21 1863.20,697.44 1868.93,697.41 1874.65,696.89 1880.38,695.45 1886.10,692.69 1891.83,688.40 1897.55,682.58 1903.28,675.46 1909.00,667.41 1914.73,658.87 1920.45,650.18 1926.18,641.59 1931.90,633.17 1937.63,624.84 1943.35,616.32 1949.08,607.22 1954.80,596.99 1960.53,585.03 1966.25,570.90 1971.98,554.43 1977.70,535.71 1983.43,515.07 1989.15,492.99 1994.88,469.83 2000.60,445.69 2006.33,420.69 2012.05,395.03 2017.78,369.12 2023.50,343.48 2029.23,318.61 2034.95,294.99 2040.68,273.00 2046.40,252.92 2052.13,234.88 2057.85,218.92 2063.58,205.01 2069.30,193.03 2075.03,182.86 2080.75,174.32 2086.48,167.23 2092.20,161.42 2097.93,156.84 2103.65,153.63 2109.38,152.26 2115.10,153.36 2120.83,157.42 2126.55,164.67 2132.28,175.10 2138.00,188.60 2143.73,204.97 2149.45,223.99 2155.18,245.45 2160.90,269.19 2166.63,295.07 2172.35,322.94 2178.08,352.65 2183.80,384.02 2189.53,416.86 2195.25,450.92 2200.98,485.84 2206.70,521.21 2212.43,556.12 2218.15,588.82 2223.88,617.66 2229.60,641.72 2235.33,660.59 2241.05,674.23 2246.78,683.40 2252.50,689.21 2258.23,692.76 2263.95,694.87 2269.68,696.12 2275.40,696.84 2281.13,697.26 2286.85,697.45 2292.58,697.37 2298.30,696.73 2304.03,695.11 2309.75,692.11 2315.48,687.58 2321.20,681.54 2326.93,674.24 2332.65,666.09 2338.38,657.50 2344.10,648.82 2349.83,640.25 2355.55,631.86 2361.28,623.52 2367.00,614.94 2372.73,605.70 2378.45,595.23 2384.18,582.95 2389.90,568.46 2395.63,551.63 2401.35,532.58 2407.08,511.68 2412.80,489.41 2418.53,466.09 2424.25,441.81 2429.98,416.69 2435.70,390.96 2441.43,365.05 2447.15,339.50 2452.88,314.80 2458.60,291.41 2464.33,269.71 2470.05,249.94 2475.78,232.23 2481.50,216.60 2487.23,203.00 2492.95,191.32 2498.68,181.41 2504.40,173.11 2510.13,166.23 2515.85,160.62 2521.58,156.24 2527.30,153.28 2533.03,152.26 2538.75,153.79 2544.48,158.35 2550.20,166.10 2555.93,177.03 2561.65,190.99 2567.38,207.79 2573.10,227.21 2578.83,249.04 2584.55,273.12 2590.28,299.32 2596.00,327.50 2601.73,357.48 2607.45,389.10 2613.18,422.15 2618.90,456.36 2624.63,491.39 2630.35,526.77 2636.08,561.46 2641.80,593.65 2647.53,621.77 2653.25,645.04 2658.98,663.08 2664.70,675.94 2670.43,684.50 2676.15,689.89 2681.88,693.17 2687.60,695.11 2693.33,696.26 2699.05,696.93 2704.78,697.30 2710.50,697.46 2716.23,697.32 2721.95,696.56 2727.68,694.73 2733.40,691.50 2739.13,686.72 2744.85,680.46 2750.58,673.01 2756.30,664.76 2762.03,656.14 2767.75,647.46 2773.48,638.92 2779.20,630.55 2784.93,622.19 2790.65,613.54 2796.38,604.15 2802.10,593.43 2807.83,580.83 2813.55,565.97 2819.28,548.78 2825.00,529.40 2830.73,508.25 2836.45,485.81 2842.18,462.33 2847.90,437.91 2853.63,412.67 2859.35,386.88 2865.08,361.00 2870.80,335.55 2876.53,311.02 2882.25,287.88 2887.98,266.47 2893.70,247.02 2899.43,229.63 2905.15,214.33 2910.88,201.03 2916.60,189.65 2922.33,180.01 2928.05,171.94 2933.78,165.27 2939.50,159.85 2945.23,155.67 2950.95,152.97 2956.68,152.31 2962.40,154.30 2968.13,159.35 2973.85,167.61 2979.58,179.03 2985.30,193.45 2991.03,210.68 2996.75,230.49 3002.48,252.68 3008.20,277.11 3013.93,303.63 3019.65,332.10 3025.38,362.35 3031.10,394.21 3036.83,427.46 3042.55,461.83 3048.28,496.95 3054.00,532.31 3059.73,566.73 3065.45,598.37 3071.18,625.77 3076.90,648.23 3082.63,665.43 3088.35,677.55 3094.08,685.53 3099.80,690.52 3105.53,693.55 3111.25,695.34 3116.98,696.39 3122.70,697.00 3128.43,697.34 3134.15,697.47 3139.88,697.25 3145.60,696.35 3151.33,694.33 3157.05,690.86 3162.78,685.83 3168.50,679.36 3174.23,671.75 3179.95,663.42 3185.68,654.77 3191.40,646.10 3197.13,637.60 3202.85,629.24 3208.58,620.86 3214.30,612.13 3220.03,602.57 3225.75,591.59 3231.48,578.64 3237.20,563.42 3242.93,545.87 3248.65,526.18 3254.38,504.80 3260.10,482.18 3265.83,458.55 3271.55,433.99 3277.28,408.64 3283.00,382.80 3288.73,356.95 3294.45,331.61 3300.18,307.28 3305.90,284.39 3311.63,263.27 3317.35,244.15 3323.08,227.09 3328.80,212.10 3334.53,199.12 3340.25,188.02 3345.98,178.64 3351.70,170.80 3357.43,164.33 3363.15,159.11 3368.88,155.13 3374.60,152.72 3380.33,152.44 3386.05,154.89 3391.78,160.44 3397.50,169.20 3403.23,181.10 3408.95,195.98 3414.68,213.63 3420.40,233.83 3426.13,256.38 3431.85,281.15 3437.58,307.98 3443.30,336.74 3449.03,367.26 3454.75,399.35 3460.48,432.80 3466.20,467.32 3471.93,502.51 3477.65,537.83 3483.38,571.94 3489.10,602.99 3494.83,629.64 3500.55,651.29 3506.28,667.65 3512.00,679.05 3517.73,686.48 3523.45,691.11 3529.18,693.89 3534.90,695.54 3540.63,696.51" fill="none" stroke="#0066cc" stroke-width="3.0" stroke-opacity="0.88" stroke-linejoin="round" stroke-linecap="round"/>
<line x1="134" y1="116" x2="182" y2="116" stroke="#0066cc" stroke-width="5" stroke-opacity="0.88"/>
<text x="194" y="122" font-family="Arial" font-size="18" fill="#222222">x9/Y</text>
<polyline points="111.35,387.47 117.08,361.58 122.80,336.12 128.53,311.56 134.25,288.38 139.98,266.93 145.70,247.44 151.43,230.00 157.15,214.65 162.88,201.31 168.60,189.88 174.33,180.21 180.05,172.11 185.78,165.40 191.50,159.96 197.23,155.75 202.95,153.02 208.68,152.30 214.40,154.22 220.13,159.20 225.85,167.39 231.58,178.73 237.30,193.10 243.03,210.26 248.75,230.02 254.48,252.16 260.20,276.53 265.93,303.01 271.65,331.43 277.38,361.65 283.10,393.47 288.83,426.70 294.55,461.04 300.28,496.15 306.00,531.51 311.73,565.98 317.45,597.70 323.18,625.20 328.90,647.78 334.63,665.10 340.35,677.32 346.08,685.39 351.80,690.44 357.53,693.49 363.25,695.31 368.98,696.37 374.70,696.99 380.43,697.34 386.15,697.47 391.88,697.26 397.60,696.38 403.33,694.39 409.05,690.95 414.78,685.96 420.50,679.52 426.23,671.93 431.95,663.61 437.68,654.96 443.40,646.30 449.13,637.79 454.85,629.43 460.58,621.05 466.30,612.33 472.03,602.80 477.75,591.86 483.48,578.96 489.20,563.79 494.93,546.29 500.65,526.65 506.38,505.30 512.10,482.70 517.83,459.10 523.55,434.56 529.28,409.22 535.00,383.39 540.73,357.53 546.45,332.18 552.18,307.81 557.90,284.89 563.63,263.73 569.35,244.56 575.08,227.45 580.80,212.42 586.53,199.39 592.25,188.25 597.98,178.83 603.70,170.96 609.43,164.47 615.15,159.21 620.88,155.21 626.60,152.75 632.33,152.41 638.05,154.80 643.78,160.28 649.50,168.97 655.23,180.80 660.95,195.62 666.68,213.20 672.40,233.34 678.13,255.85 683.85,280.56 689.58,307.35 695.30,336.07 701.03,366.55 706.75,398.61 712.48,432.03 718.20,466.53 723.93,501.71 729.65,537.04 735.38,571.19 741.10,602.33 746.83,629.09 752.55,650.86 758.28,667.34 764.00,678.84 769.73,686.35 775.45,691.03 781.18,693.85 786.90,695.51 792.63,696.49 798.35,697.06 804.08,697.37 809.80,697.46 815.53,697.18 821.25,696.15 826.98,693.95 832.70,690.27 838.43,685.04 844.15,678.39 849.88,670.66 855.60,662.26 861.33,653.60 867.05,644.95 872.78,636.46 878.50,628.12 884.23,619.71 889.95,610.90 895.68,601.19 901.40,589.97 907.13,576.73 912.85,561.19 918.58,543.33 924.30,523.39 930.03,501.82 935.75,479.05 941.48,455.30 947.20,430.62 952.93,405.18 958.65,379.31 964.38,353.50 970.10,328.27 975.83,304.10 981.55,281.43 987.28,260.58 993.00,241.73 998.73,224.95 1004.45,210.24 1010.18,197.52 1015.90,186.66 1021.63,177.50 1027.35,169.86 1033.08,163.56 1038.80,158.49 1044.53,154.71 1050.25,152.54 1055.98,152.60 1061.70,155.45 1067.43,161.43 1073.15,170.62 1078.88,182.94 1084.60,198.20 1090.33,216.21 1096.05,236.73 1101.78,259.59 1107.50,284.64 1113.23,311.75 1118.95,340.75 1124.68,371.50 1130.40,403.79 1136.13,437.40 1141.85,472.03 1147.58,507.28 1153.30,542.54 1159.03,576.34 1164.75,606.85 1170.48,632.86 1176.20,653.81 1181.93,669.46 1187.65,680.26 1193.38,687.25 1199.10,691.57 1204.83,694.17 1210.55,695.71 1216.28,696.60 1222.00,697.12 1227.73,697.40 1233.45,697.45 1239.18,697.08 1244.90,695.89 1250.63,693.47 1256.35,689.55 1262.08,684.08 1267.80,677.24 1273.53,669.37 1279.25,660.91 1284.98,652.23 1290.70,643.60 1296.43,635.15 1302.15,626.81 1307.88,618.36 1313.60,609.45 1319.33,599.54 1325.05,588.03 1330.78,574.44 1336.50,558.53 1342.23,540.32 1347.95,520.09 1353.68,498.31 1359.40,475.38 1365.13,451.47 1370.85,426.66 1376.58,401.13 1382.30,375.23 1388.03,349.48 1393.75,324.38 1399.48,300.43 1405.20,278.03 1410.93,257.48 1416.65,238.95 1422.38,222.50 1428.10,208.11 1433.83,195.69 1439.55,185.11 1445.28,176.20 1451.00,168.78 1456.73,162.68 1462.45,157.81 1468.18,154.25 1473.90,152.39 1479.63,152.85 1485.35,156.18 1491.08,162.67 1496.80,172.36 1502.53,185.15 1508.25,200.86 1513.98,219.28 1519.70,240.18 1525.43,263.39 1531.15,288.77 1536.88,316.19 1542.60,345.48 1548.33,376.48 1554.05,408.99 1559.78,442.79 1565.50,477.54 1571.23,512.85 1576.95,548.01 1582.68,581.40 1588.40,611.26 1594.13,636.50 1599.85,656.62 1605.58,671.45 1611.30,681.58 1617.03,688.08 1622.75,692.08 1628.48,694.47 1634.20,695.88 1639.93,696.71 1645.65,697.18 1651.38,697.43 1657.10,697.43 1662.83,696.96 1668.55,695.60 1674.28,692.96 1680.00,688.79 1685.73,683.09 1691.45,676.06 1697.18,668.07 1702.90,659.55 1708.63,650.86 1714.35,642.26 1720.08,633.83 1725.80,625.49 1731.53,617.00 1737.25,607.97 1742.98,597.85 1748.70,586.04 1754.43,572.09 1760.15,555.81 1765.88,537.26 1771.60,516.75 1777.33,494.77 1783.05,471.68 1788.78,447.63 1794.50,422.68 1800.23,397.07 1805.95,371.16 1811.68,345.47 1817.40,320.53 1823.13,296.79 1828.85,274.66 1834.58,254.43 1840.30,236.22 1846.03,220.10 1851.75,206.03 1857.48,193.91 1863.20,183.60 1868.93,174.94 1874.65,167.74 1880.38,161.84 1886.10,157.15 1891.83,153.83 1897.55,152.29 1903.28,153.17 1909.00,156.99 1914.73,163.98 1920.45,174.17 1926.18,187.43 1931.90,203.59 1937.63,222.40 1943.35,243.68 1949.08,267.24 1954.80,292.96 1960.53,320.68 1966.25,350.25 1971.98,381.50 1977.70,414.23 1983.43,448.20 1989.15,483.07 1994.88,518.42 2000.60,553.43 2006.33,586.37 2012.05,615.56 2017.78,640.01 2023.50,659.30 2029.23,673.33 2034.95,682.81 2040.68,688.84 2046.40,692.54 2052.13,694.74 2057.85,696.04 2063.58,696.80 2069.30,697.24 2075.03,697.45 2080.75,697.39 2086.48,696.81 2092.20,695.28 2097.93,692.40 2103.65,687.99 2109.38,682.06 2115.10,674.85 2120.83,666.75 2126.55,658.19 2132.28,649.50 2138.00,640.92 2143.73,632.52 2149.45,624.18 2155.18,615.63 2160.90,606.46 2166.63,596.12 2172.35,584.00 2178.08,569.69 2183.80,553.04 2189.53,534.15 2195.25,513.38 2200.98,491.20 2206.70,467.96 2212.43,443.76 2218.15,418.69 2223.88,393.00 2229.60,367.09 2235.33,341.49 2241.05,316.70 2246.78,293.20 2252.50,271.35 2258.23,251.42 2263.95,233.55 2269.68,217.75 2275.40,204.00 2281.13,192.17 2286.85,182.13 2292.58,173.71 2298.30,166.73 2304.03,161.02 2309.75,156.53 2315.48,153.45 2321.20,152.25 2326.93,153.57 2332.65,157.87 2338.38,165.37 2344.10,176.05 2349.83,189.79 2355.55,206.37 2361.28,225.59 2367.00,247.24 2372.73,271.15 2378.45,297.19 2384.18,325.21 2389.90,355.06 2395.63,386.56 2401.35,419.50 2407.08,453.64 2412.80,488.62 2418.53,523.99 2424.25,558.79 2429.98,591.25 2435.70,619.73 2441.43,643.40 2447.15,661.85 2452.88,675.10 2458.60,683.96 2464.33,689.55 2470.05,692.97 2475.78,695.00 2481.50,696.19 2487.23,696.88 2492.95,697.28 2498.68,697.46 2504.40,697.35 2510.13,696.65 2515.85,694.93 2521.58,691.81 2527.30,687.16 2533.03,681.00 2538.75,673.63 2544.48,665.43 2550.20,656.82 2555.93,648.14 2561.65,639.59 2567.38,631.21 2573.10,622.85 2578.83,614.24 2584.55,604.93 2590.28,594.34 2596.00,581.90 2601.73,567.22 2607.45,550.21 2613.18,531.00 2618.90,509.97 2624.63,487.61 2630.35,464.22 2636.08,439.87 2641.80,414.68 2647.53,388.92 2653.25,363.02 2658.98,337.52 2664.70,312.90 2670.43,289.64 2676.15,268.08 2681.88,248.47 2687.60,230.92 2693.33,215.46 2699.05,202.01 2704.78,190.48 2710.50,180.71 2716.23,172.52 2721.95,165.75 2727.68,160.23 2733.40,155.95 2739.13,153.12 2744.85,152.28 2750.58,154.04 2756.30,158.84 2762.03,166.84 2767.75,178.02 2773.48,192.22 2779.20,209.23 2784.93,228.84 2790.65,250.86 2796.38,275.11 2802.10,301.47 2807.83,329.79 2813.55,359.91 2819.28,391.65 2825.00,424.80 2830.73,459.10 2836.45,494.17 2842.18,529.54 2847.90,564.10 2853.63,596.02 2859.35,623.79 2865.08,646.65 2870.80,664.27 2876.53,676.76 2882.25,685.03 2887.98,690.21 2893.70,693.36 2899.43,695.23 2905.15,696.33 2910.88,696.96 2916.60,697.33 2922.33,697.47 2928.05,697.29 2933.78,696.46 2939.50,694.54 2945.23,691.19 2950.95,686.28 2956.68,679.91 2962.40,672.38 2968.13,664.09 2973.85,655.45 2979.58,646.78 2985.30,638.26 2991.03,629.89 2996.75,621.53 3002.48,612.84 3008.20,603.36 3013.93,592.52 3019.65,579.74 3025.38,564.70 3031.10,547.33 3036.83,527.80 3042.55,506.53 3048.28,484.00 3054.00,460.45 3059.73,435.95 3065.45,410.66 3071.18,384.84 3076.90,358.97 3082.63,333.58 3088.35,309.14 3094.08,286.13 3099.80,264.86 3105.53,245.58 3111.25,228.35 3116.98,213.21 3122.70,200.07 3128.43,188.83 3134.15,179.32 3139.88,171.37 3145.60,164.80 3151.33,159.47 3157.05,155.39 3162.78,152.84 3168.50,152.37 3174.23,154.58 3179.95,159.89 3185.68,168.40 3191.40,180.06 3197.13,194.71 3202.85,212.15 3208.58,232.15 3214.30,254.53 3220.03,279.12 3225.75,305.80 3231.48,334.42 3237.20,364.80 3242.93,396.78 3248.65,430.13 3254.38,464.58 3260.10,499.73 3265.83,535.08 3271.55,569.34 3277.28,600.69 3283.00,627.72 3288.73,649.78 3294.45,666.56 3300.18,678.31 3305.90,686.02 3311.63,690.82 3317.35,693.72 3323.08,695.44 3328.80,696.45 3334.53,697.04 3340.25,697.36 3345.98,697.46 3351.70,697.21 3357.43,696.24 3363.15,694.11 3368.88,690.52 3374.60,685.37 3380.33,678.80 3386.05,671.11 3391.78,662.74 3397.50,654.08 3403.23,645.43 3408.95,636.94 3414.68,628.58 3420.40,620.19 3426.13,611.41 3431.85,601.76 3437.58,590.65 3443.30,577.53 3449.03,562.12 3454.75,544.39 3460.48,524.55 3466.20,503.06 3471.93,480.36 3477.65,456.65 3483.38,432.02 3489.10,406.62 3494.83,380.76 3500.55,354.93 3506.28,329.66 3512.00,305.42 3517.73,282.66 3523.45,261.69 3529.18,242.73 3534.90,225.83 3540.63,211.01" fill="none" stroke="#cc3311" stroke-width="3.0" stroke-opacity="0.88" stroke-linejoin="round" stroke-linecap="round"/>
<line x1="369" y1="116" x2="417" y2="116" stroke="#cc3311" stroke-width="5" stroke-opacity="0.88"/>
<text x="429" y="122" font-family="Arial" font-size="18" fill="#222222">x4/A</text>
<polyline points="111.35,156.12 117.08,162.57 122.80,172.23 128.53,184.99 134.25,200.67 139.98,219.05 145.70,239.93 151.43,263.12 157.15,288.48 162.88,315.87 168.60,345.14 174.33,376.12 180.05,408.62 185.78,442.40 191.50,477.15 197.23,512.45 202.95,547.61 208.68,581.04 214.40,610.95 220.13,636.24 225.85,656.43 231.58,671.32 237.30,681.49 243.03,688.02 248.75,692.04 254.48,694.45 260.20,695.87 265.93,696.70 271.65,697.18 277.38,697.43 283.10,697.43 288.83,696.97 294.55,695.63 300.28,693.00 306.00,688.85 311.73,683.16 317.45,676.14 323.18,668.16 328.90,659.65 334.63,650.96 340.35,642.35 346.08,633.92 351.80,625.59 357.53,617.10 363.25,608.08 368.98,597.97 374.70,586.19 380.43,572.27 386.15,556.01 391.88,537.49 397.60,516.99 403.33,495.02 409.05,471.95 414.78,447.90 420.50,422.97 426.23,397.36 431.95,371.45 437.68,345.76 443.40,320.80 449.13,297.05 454.85,274.91 460.58,254.64 466.30,236.42 472.03,220.27 477.75,206.18 483.48,194.04 489.20,183.71 494.93,175.03 500.65,167.81 506.38,161.90 512.10,157.20 517.83,153.85 523.55,152.29 529.28,153.14 535.00,156.92 540.73,163.88 546.45,174.03 552.18,187.27 557.90,203.39 563.63,222.18 569.35,243.43 575.08,266.97 580.80,292.65 586.53,320.35 592.25,349.90 597.98,381.14 603.70,413.85 609.43,447.81 615.15,482.67 620.88,518.02 626.60,553.04 632.33,586.01 638.05,615.25 643.78,639.76 649.50,659.12 655.23,673.20 660.95,682.73 666.68,688.79 672.40,692.51 678.13,694.72 683.85,696.03 689.58,696.79 695.30,697.23 701.03,697.44 706.75,697.40 712.48,696.82 718.20,695.31 723.93,692.45 729.65,688.05 735.38,682.14 741.10,674.94 746.83,666.85 752.55,658.28 758.28,649.60 764.00,641.02 769.73,632.61 775.45,624.27 781.18,615.73 786.90,606.57 792.63,596.24 798.35,584.15 804.08,569.86 809.80,553.24 815.53,534.38 821.25,513.62 826.98,491.46 832.70,468.23 838.43,444.04 844.15,418.98 849.88,393.29 855.60,367.38 861.33,341.77 867.05,316.97 872.78,293.45 878.50,271.59 884.23,251.64 889.95,233.74 895.68,217.92 901.40,204.14 907.13,192.29 912.85,182.24 918.58,173.80 924.30,166.80 930.03,161.08 935.75,156.58 941.48,153.48 947.20,152.25 952.93,153.54 958.65,157.81 964.38,165.27 970.10,175.92 975.83,189.62 981.55,206.17 987.28,225.36 993.00,246.98 998.73,270.87 1004.45,296.88 1010.18,324.88 1015.90,354.71 1021.63,386.19 1027.35,419.12 1033.08,453.25 1038.80,488.22 1044.53,523.59 1050.25,558.41 1055.98,590.90 1061.70,619.44 1067.43,643.16 1073.15,661.67 1078.88,674.98 1084.60,683.88 1090.33,689.51 1096.05,692.94 1101.78,694.98 1107.50,696.18 1113.23,696.88 1118.95,697.28 1124.68,697.46 1130.40,697.35 1136.13,696.66 1141.85,694.95 1147.58,691.86 1153.30,687.22 1159.03,681.08 1164.75,673.72 1170.48,665.52 1176.20,656.92 1181.93,648.24 1187.65,639.68 1193.38,631.30 1199.10,622.95 1204.83,614.34 1210.55,605.04 1216.28,594.47 1222.00,582.05 1227.73,567.40 1233.45,550.42 1239.18,531.23 1244.90,510.22 1250.63,487.87 1256.35,464.49 1262.08,440.15 1267.80,414.97 1273.53,389.22 1279.25,363.32 1284.98,337.81 1290.70,313.18 1296.43,289.89 1302.15,268.32 1307.88,248.68 1313.60,231.11 1319.33,215.62 1325.05,202.15 1330.78,190.60 1336.50,180.81 1342.23,172.61 1347.95,165.81 1353.68,160.29 1359.40,155.99 1365.13,153.14 1370.85,152.27 1376.58,154.00 1382.30,158.77 1388.03,166.74 1393.75,177.87 1399.48,192.04 1405.20,209.02 1410.93,228.61 1416.65,250.59 1422.38,274.82 1428.10,301.16 1433.83,329.46 1439.55,359.56 1445.28,391.28 1451.00,424.42 1456.73,458.70 1462.45,493.77 1468.18,529.14 1473.90,563.72 1479.63,595.68 1485.35,623.50 1491.08,646.42 1496.80,664.10 1502.53,676.64 1508.25,684.95 1513.98,690.17 1519.70,693.34 1525.43,695.21 1531.15,696.32 1536.88,696.96 1542.60,697.32 1548.33,697.47 1554.05,697.29 1559.78,696.47 1565.50,694.56 1571.23,691.23 1576.95,686.35 1582.68,679.99 1588.40,672.47 1594.13,664.19 1599.85,655.55 1605.58,646.88 1611.30,638.35 1617.03,629.99 1622.75,621.62 1628.48,612.94 1634.20,603.48 1639.93,592.65 1645.65,579.90 1651.38,564.89 1657.10,547.54 1662.83,528.03 1668.55,506.78 1674.28,484.26 1680.00,460.72 1685.73,436.24 1691.45,410.95 1697.18,385.14 1702.90,359.26 1708.63,333.86 1714.35,309.41 1720.08,286.38 1725.80,265.09 1731.53,245.78 1737.25,228.54 1742.98,213.37 1748.70,200.21 1754.43,188.94 1760.15,179.42 1765.88,171.45 1771.60,164.86 1777.33,159.53 1783.05,155.43 1788.78,152.86 1794.50,152.36 1800.23,154.54 1805.95,159.81 1811.68,168.28 1817.40,179.91 1823.13,194.53 1828.85,211.94 1834.58,231.91 1840.30,254.26 1846.03,278.83 1851.75,305.49 1857.48,334.08 1863.20,364.45 1868.93,396.41 1874.65,429.75 1880.38,464.18 1886.10,499.33 1891.83,534.68 1897.55,568.97 1903.28,600.36 1909.00,627.44 1914.73,649.56 1920.45,666.39 1926.18,678.20 1931.90,685.95 1937.63,690.78 1943.35,693.70 1949.08,695.43 1954.80,696.44 1960.53,697.03 1966.25,697.36 1971.98,697.46 1977.70,697.22 1983.43,696.25 1989.15,694.14 1994.88,690.57 2000.60,685.44 2006.33,678.88 2012.05,671.21 2017.78,662.84 2023.50,654.18 2029.23,645.53 2034.95,637.03 2040.68,628.68 2046.40,620.29 2052.13,611.52 2057.85,601.88 2063.58,590.78 2069.30,577.69 2075.03,562.31 2080.75,544.60 2086.48,524.79 2092.20,503.31 2097.93,480.62 2103.65,456.93 2109.38,432.31 2115.10,406.91 2120.83,381.06 2126.55,355.22 2132.28,329.94 2138.00,305.69 2143.73,282.91 2149.45,261.92 2155.18,242.93 2160.90,226.01 2166.63,211.17 2172.35,198.32 2178.08,187.33 2183.80,178.06 2189.53,170.33 2195.25,163.94 2200.98,158.80 2206.70,154.92 2212.43,152.63 2218.15,152.51 2223.88,155.16 2229.60,160.93 2235.33,169.90 2241.05,182.01 2246.78,197.09 2252.50,214.91 2258.23,235.28 2263.95,257.98 2269.68,282.89 2275.40,309.86 2281.13,338.74 2286.85,369.37 2292.58,401.57 2298.30,435.10 2304.03,469.67 2309.75,504.90 2315.48,540.19 2321.20,574.14 2326.93,604.93 2332.65,631.26 2338.38,652.56 2344.10,668.57 2349.83,679.66 2355.55,686.87 2361.28,691.34 2367.00,694.03 2372.73,695.63 2378.45,696.56 2384.18,697.10 2389.90,697.39 2395.63,697.46 2401.35,697.12 2407.08,696.01 2412.80,693.68 2418.53,689.86 2424.25,684.50 2429.98,677.73 2435.70,669.92 2441.43,661.49 2447.15,652.81 2452.88,644.18 2458.60,635.71 2464.33,627.37 2470.05,618.94 2475.78,610.07 2481.50,600.25 2487.23,588.87 2492.95,575.43 2498.68,559.67 2504.40,541.62 2510.13,521.51 2515.85,499.81 2521.58,476.96 2527.30,453.11 2533.03,428.35 2538.75,402.87 2544.48,376.98 2550.20,351.20 2555.93,326.04 2561.65,301.99 2567.38,279.48 2573.10,258.80 2578.83,240.13 2584.55,223.54 2590.28,209.02 2596.00,196.47 2601.73,185.77 2607.45,176.75 2613.18,169.24 2618.90,163.05 2624.63,158.10 2630.35,154.44 2636.08,152.45 2641.80,152.73 2647.53,155.86 2653.25,162.13 2658.98,171.60 2664.70,184.19 2670.43,199.72 2676.15,217.96 2681.88,238.70 2687.60,261.76 2693.33,287.00 2699.05,314.28 2704.78,343.45 2710.50,374.34 2716.23,406.76 2721.95,440.48 2727.68,475.18 2733.40,510.47 2739.13,545.67 2744.85,579.24 2750.58,609.39 2756.30,634.96 2762.03,655.44 2767.75,670.61 2773.48,681.02 2779.20,687.73 2784.93,691.87 2790.65,694.34 2796.38,695.81 2802.10,696.66 2807.83,697.16 2813.55,697.42 2819.28,697.44 2825.00,697.01 2830.73,695.73 2836.45,693.18 2842.18,689.12 2847.90,683.52 2853.63,676.57 2859.35,668.63 2865.08,660.13 2870.80,651.45 2876.53,642.83 2882.25,634.39 2887.98,626.06 2893.70,617.59 2899.43,608.60 2905.15,598.57 2910.88,586.90 2916.60,573.11 2922.33,556.98 2928.05,538.58 2933.78,518.19 2939.50,496.29 2945.23,473.27 2950.95,449.28 2956.68,424.38 2962.40,398.81 2968.13,372.90 2973.85,347.19 2979.58,322.17 2985.30,298.34 2991.03,276.10 2996.75,255.73 3002.48,237.38 3008.20,221.12 3013.93,206.91 3019.65,194.67 3025.38,184.24 3031.10,175.47 3036.83,168.18 3042.55,162.19 3048.28,157.43 3054.00,154.00 3059.73,152.32 3065.45,153.02 3071.18,156.63 3076.90,163.41 3082.63,173.38 3088.35,186.45 3094.08,202.41 3099.80,221.06 3105.53,242.17 3111.25,265.59 3116.98,291.16 3122.70,318.75 3128.43,348.20 3134.15,379.35 3139.88,411.99 3145.60,445.88 3151.33,480.70 3157.05,516.04 3162.78,551.11 3168.50,584.25 3174.23,613.73 3179.95,638.52 3185.68,658.17 3191.40,672.54 3197.13,682.29 3202.85,688.52 3208.58,692.35 3214.30,694.63 3220.03,695.98 3225.75,696.76 3231.48,697.21 3237.20,697.44 3242.93,697.41 3248.65,696.88 3254.38,695.42 3260.10,692.65 3265.83,688.34 3271.55,682.51 3277.28,675.37 3283.00,667.32 3288.73,658.77 3294.45,650.08 3300.18,641.49 3305.90,633.08 3311.63,624.74 3317.35,616.22 3323.08,607.11 3328.80,596.86 3334.53,584.88 3340.25,570.73 3345.98,554.23 3351.70,535.49 3357.43,514.83 3363.15,492.73 3368.88,469.56 3374.60,445.42 3380.33,420.40 3386.05,394.74 3391.78,368.83 3397.50,343.19 3403.23,318.33 3408.95,294.73 3414.68,272.76 3420.40,252.70 3426.13,234.69 3431.85,218.75 3437.58,204.86 3443.30,192.91 3449.03,182.76 3454.75,174.23 3460.48,167.15 3466.20,161.36 3471.93,156.79 3477.65,153.61 3483.38,152.26 3489.10,153.39 3494.83,157.48 3500.55,164.77 3506.28,175.24 3512.00,188.77 3517.73,205.17 3523.45,224.22 3529.18,245.71 3534.90,269.47 3540.63,295.37" fill="none" stroke="#009988" stroke-width="3.0" stroke-opacity="0.88" stroke-linejoin="round" stroke-linecap="round"/>
<line x1="604" y1="116" x2="652" y2="116" stroke="#009988" stroke-width="5" stroke-opacity="0.88"/>
<text x="664" y="122" font-family="Arial" font-size="18" fill="#222222">x9/A</text>
<polyline points="111.35,668.82 117.08,660.33 122.80,651.64 128.53,643.03 134.25,634.58 139.98,626.24 145.70,617.78 151.43,608.82 157.15,598.82 162.88,587.19 168.60,573.44 174.33,557.37 180.05,539.02 185.78,518.67 191.50,496.80 197.23,473.80 202.95,449.83 208.68,424.95 214.40,399.39 220.13,373.49 225.85,347.76 231.58,322.73 237.30,298.87 243.03,276.58 248.75,256.16 254.48,237.77 260.20,221.47 265.93,207.21 271.65,194.92 277.38,184.46 283.10,175.65 288.83,168.33 294.55,162.32 300.28,157.52 306.00,154.06 311.73,152.34 317.45,152.98 323.18,156.51 328.90,163.22 334.63,173.12 340.35,186.12 346.08,202.02 351.80,220.61 357.53,241.67 363.25,265.03 368.98,290.56 374.70,318.11 380.43,347.52 386.15,378.62 391.88,411.23 397.60,445.10 403.33,479.91 409.05,515.24 414.78,550.33 420.50,583.54 426.23,613.12 431.95,638.02 437.68,657.79 443.40,672.27 449.13,682.12 454.85,688.41 460.58,692.28 466.30,694.59 472.03,695.95 477.75,696.75 483.48,697.21 489.20,697.44 494.93,697.41 500.65,696.90 506.38,695.47 512.10,692.73 517.83,688.45 523.55,682.65 529.28,675.54 535.00,667.51 540.73,658.97 546.45,650.28 552.18,641.69 557.90,633.27 563.63,624.93 569.35,616.42 575.08,607.33 580.80,597.11 586.53,585.17 592.25,571.07 597.98,554.63 603.70,535.94 609.43,515.31 615.15,493.25 620.88,470.09 626.60,445.97 632.33,420.97 638.05,395.33 643.78,369.41 649.50,343.77 655.23,318.88 660.95,295.25 666.68,273.24 672.40,253.13 678.13,235.07 683.85,219.09 689.58,205.15 695.30,193.16 701.03,182.97 706.75,174.41 712.48,167.30 718.20,161.48 723.93,156.88 729.65,153.66 735.38,152.27 741.10,153.33 746.83,157.36 752.55,164.57 758.28,174.97 764.00,188.43 769.73,204.77 775.45,223.76 781.18,245.20 786.90,268.91 792.63,294.76 798.35,322.61 804.08,352.30 809.80,383.66 815.53,416.49 821.25,450.53 826.98,485.44 832.70,520.81 838.43,555.73 844.15,588.47 849.88,617.36 855.60,641.48 861.33,660.41 867.05,674.10 872.78,683.31 878.50,689.15 884.23,692.73 889.95,694.85 895.68,696.11 901.40,696.84 907.13,697.26 912.85,697.45 918.58,697.38 924.30,696.75 930.03,695.13 935.75,692.16 941.48,687.64 947.20,681.61 952.93,674.33 958.65,666.19 964.38,657.60 970.10,648.92 975.83,640.35 981.55,631.95 987.28,623.61 993.00,615.04 998.73,605.81 1004.45,595.36 1010.18,583.11 1015.90,568.64 1021.63,551.84 1027.35,532.81 1033.08,511.92 1038.80,489.67 1044.53,466.36 1050.25,442.09 1055.98,416.98 1061.70,391.25 1067.43,365.35 1073.15,339.79 1078.88,315.07 1084.60,291.67 1090.33,269.95 1096.05,250.16 1101.78,232.42 1107.50,216.76 1113.23,203.14 1118.95,191.44 1124.68,181.52 1130.40,173.20 1136.13,166.30 1141.85,160.68 1147.58,156.28 1153.30,153.30 1159.03,152.25 1164.75,153.76 1170.48,158.28 1176.20,165.99 1181.93,176.89 1187.65,190.82 1193.38,207.59 1199.10,226.98 1204.83,248.78 1210.55,272.84 1216.28,299.02 1222.00,327.17 1227.73,357.13 1233.45,388.73 1239.18,421.77 1244.90,455.97 1250.63,490.99 1256.35,526.37 1262.08,561.07 1267.80,593.30 1273.53,621.48 1279.25,644.81 1284.98,662.90 1290.70,675.82 1296.43,684.43 1302.15,689.84 1307.88,693.14 1313.60,695.10 1319.33,696.25 1325.05,696.92 1330.78,697.30 1336.50,697.46 1342.23,697.32 1347.95,696.57 1353.68,694.76 1359.40,691.55 1365.13,686.79 1370.85,680.54 1376.58,673.10 1382.30,664.86 1388.03,656.23 1393.75,647.56 1399.48,639.02 1405.20,630.64 1410.93,622.29 1416.65,613.64 1422.38,604.26 1428.10,593.57 1433.83,580.98 1439.55,566.15 1445.28,548.98 1451.00,529.63 1456.73,508.50 1462.45,486.07 1468.18,462.60 1473.90,438.19 1479.63,412.96 1485.35,387.18 1491.08,361.29 1496.80,335.83 1502.53,311.29 1508.25,288.13 1513.98,266.70 1519.70,247.23 1525.43,229.82 1531.15,214.49 1536.88,201.17 1542.60,189.77 1548.33,180.11 1554.05,172.02 1559.78,165.34 1565.50,159.90 1571.23,155.71 1576.95,153.00 1582.68,152.31 1588.40,154.26 1594.13,159.28 1599.85,167.50 1605.58,178.88 1611.30,193.27 1617.03,210.47 1622.75,230.25 1628.48,252.42 1634.20,276.82 1639.93,303.32 1645.65,331.77 1651.38,362.00 1657.10,393.84 1662.83,427.08 1668.55,461.44 1674.28,496.55 1680.00,531.91 1685.73,566.36 1691.45,598.03 1697.18,625.49 1702.90,648.01 1708.63,665.26 1714.35,677.43 1720.08,685.46 1725.80,690.48 1731.53,693.52 1737.25,695.32 1742.98,696.38 1748.70,697.00 1754.43,697.34 1760.15,697.47 1765.88,697.26 1771.60,696.37 1777.33,694.36 1783.05,690.90 1788.78,685.90 1794.50,679.44 1800.23,671.84 1805.95,663.51 1811.68,654.87 1817.40,646.20 1823.13,637.69 1828.85,629.33 1834.58,620.96 1840.30,612.23 1846.03,602.68 1851.75,591.72 1857.48,578.80 1863.20,563.60 1868.93,546.08 1874.65,526.41 1880.38,505.05 1886.10,482.44 1891.83,458.82 1897.55,434.27 1903.28,408.93 1909.00,383.10 1914.73,357.24 1920.45,331.90 1926.18,307.54 1931.90,284.64 1937.63,263.50 1943.35,244.35 1949.08,227.27 1954.80,212.26 1960.53,199.26 1966.25,188.13 1971.98,178.73 1977.70,170.88 1983.43,164.40 1989.15,159.16 1994.88,155.17 2000.60,152.74 2006.33,152.42 2012.05,154.84 2017.78,160.36 2023.50,169.08 2029.23,180.95 2034.95,195.80 2040.68,213.42 2046.40,233.59 2052.13,256.11 2057.85,280.85 2063.58,307.67 2069.30,336.41 2075.03,366.91 2080.75,398.98 2086.48,432.42 2092.20,466.93 2097.93,502.11 2103.65,537.44 2109.38,571.57 2115.10,602.66 2120.83,629.37 2126.55,651.08 2132.28,667.50 2138.00,678.94 2143.73,686.42 2149.45,691.07 2155.18,693.87 2160.90,695.53 2166.63,696.50 2172.35,697.07 2178.08,697.38 2183.80,697.46 2189.53,697.17 2195.25,696.13 2200.98,693.91 2206.70,690.22 2212.43,684.97 2218.15,678.31 2223.88,670.57 2229.60,662.17 2235.33,653.50 2241.05,644.85 2246.78,636.37 2252.50,628.02 2258.23,619.62 2263.95,610.80 2269.68,601.07 2275.40,589.83 2281.13,576.57 2286.85,561.00 2292.58,543.12 2298.30,523.15 2304.03,501.57 2309.75,478.79 2315.48,455.02 2321.20,430.33 2326.93,404.89 2332.65,379.02 2338.38,353.21 2344.10,327.99 2349.83,303.84 2355.55,281.19 2361.28,260.35 2367.00,241.52 2372.73,224.77 2378.45,210.09 2384.18,197.39 2389.90,186.55 2395.63,177.40 2401.35,169.78 2407.08,163.50 2412.80,158.44 2418.53,154.67 2424.25,152.53 2429.98,152.61 2435.70,155.50 2441.43,161.52 2447.15,170.74 2452.88,183.09 2458.60,198.39 2464.33,216.43 2470.05,236.98 2475.78,259.86 2481.50,284.94 2487.23,312.07 2492.95,341.09 2498.68,371.85 2504.40,404.16 2510.13,437.79 2515.85,472.43 2521.58,507.68 2527.30,542.94 2533.03,576.70 2538.75,607.17 2544.48,633.12 2550.20,654.02 2555.93,669.61 2561.65,680.35 2567.38,687.31 2573.10,691.61 2578.83,694.19 2584.55,695.72 2590.28,696.61 2596.00,697.13 2601.73,697.40 2607.45,697.45 2613.18,697.07 2618.90,695.87 2624.63,693.44 2630.35,689.50 2636.08,684.01 2641.80,677.15 2647.53,669.28 2653.25,660.81 2658.98,652.13 2664.70,643.50 2670.43,635.05 2676.15,626.71 2681.88,618.27 2687.60,609.34 2693.33,599.42 2699.05,587.89 2704.78,574.27 2710.50,558.34 2716.23,540.10 2721.95,519.85 2727.68,498.05 2733.40,475.12 2739.13,451.20 2744.85,426.37 2750.58,400.84 2756.30,374.94 2762.03,349.19 2767.75,324.10 2773.48,300.16 2779.20,277.78 2784.93,257.26 2790.65,238.75 2796.38,222.33 2802.10,207.96 2807.83,195.56 2813.55,185.00 2819.28,176.11 2825.00,168.70 2830.73,162.62 2836.45,157.76 2842.18,154.21 2847.90,152.38 2853.63,152.87 2859.35,156.23 2865.08,162.76 2870.80,172.48 2876.53,185.31 2882.25,201.06 2887.98,219.50 2893.70,240.43 2899.43,263.67 2905.15,289.07 2910.88,316.51 2916.60,345.82 2922.33,376.84 2928.05,409.37 2933.78,443.18 2939.50,477.94 2945.23,513.25 2950.95,548.40 2956.68,581.76 2962.40,611.58 2968.13,636.76 2973.85,656.82 2979.58,671.59 2985.30,681.67 2991.03,688.13 2996.75,692.11 3002.48,694.49 3008.20,695.89 3013.93,696.71 3019.65,697.19 3025.38,697.43 3031.10,697.43 3036.83,696.95 3042.55,695.58 3048.28,692.92 3054.00,688.73 3059.73,683.02 3065.45,675.97 3071.18,667.97 3076.90,659.45 3082.63,650.76 3088.35,642.16 3094.08,633.74 3099.80,625.40 3105.53,616.91 3111.25,607.86 3116.98,597.72 3122.70,585.90 3128.43,571.92 3134.15,555.62 3139.88,537.04 3145.60,516.51 3151.33,494.51 3157.05,471.42 3162.78,447.35 3168.50,422.39 3174.23,396.78 3179.95,370.86 3185.68,345.19 3191.40,320.25 3197.13,296.53 3202.85,274.42 3208.58,254.21 3214.30,236.03 3220.03,219.93 3225.75,205.88 3231.48,193.78 3237.20,183.49 3242.93,174.85 3248.65,167.66 3254.38,161.78 3260.10,157.11 3265.83,153.80 3271.55,152.28 3277.28,153.20 3283.00,157.05 3288.73,164.08 3294.45,174.30 3300.18,187.60 3305.90,203.78 3311.63,222.63 3317.35,243.93 3323.08,267.52 3328.80,293.26 3334.53,321.00 3340.25,350.59 3345.98,381.86 3351.70,414.61 3357.43,448.59 3363.15,483.47 3368.88,518.82 3374.60,553.81 3380.33,586.72 3386.05,615.86 3391.78,640.26 3397.50,659.49 3403.23,673.47 3408.95,682.90 3414.68,688.90 3420.40,692.57 3426.13,694.76 3431.85,696.05 3437.58,696.81 3443.30,697.24 3449.03,697.45 3454.75,697.39 3460.48,696.80 3466.20,695.26 3471.93,692.36 3477.65,687.93 3483.38,681.99 3489.10,674.77 3494.83,666.66 3500.55,658.09 3506.28,649.40 3512.00,640.82 3517.73,632.42 3523.45,624.08 3529.18,615.53 3534.90,606.35 3540.63,595.99" fill="none" stroke="#ee9900" stroke-width="3.0" stroke-opacity="0.88" stroke-linejoin="round" stroke-linecap="round"/>
<line x1="839" y1="116" x2="887" y2="116" stroke="#ee9900" stroke-width="5" stroke-opacity="0.88"/>
<text x="899" y="122" font-family="Arial" font-size="18" fill="#222222">x8/A</text>
<text x="1800.0" y="795" text-anchor="middle" font-family="Arial" font-size="18" fill="#222222">time (us)</text>
<text x="30" y="410.0" transform="rotate(-90 30 410.0)" text-anchor="middle" font-family="Arial" font-size="18" fill="#222222">voltage (V)</text>
</svg>