<svg xmlns="http://www.w3.org/2000/svg" width="512" height="512" viewBox="0 0 512 512" fill="none"><defs><clipPath id="clipSafe512"><rect x="8.00" y="8.00" width="496.00" height="496.00" rx="100.00"/></clipPath></defs><rect x="0" y="0" width="512" height="512" rx="100.00" fill="#3584E4" fill-opacity="1"/><rect x="0.00" y="0.00" width="512.00" height="512.00" rx="100.00" fill="none" stroke="#000000" stroke-width="0.00" opacity="0.85"/><g clip-path="url(#clipSafe512)" transform="translate(21.49 -32.31) scale(0.9668)"><path xmlns="http://www.w3.org/2000/svg" d="M 433.11 121.28 C 428.90 116.97, 422.00 110.34, 415.33 106.24 C 408.66 102.14, 396.66 96.50, 388.66 93.93 C 380.66 91.37, 369.68 89.75, 361.99 89.14 C 354.30 88.53, 344.97 88.80, 337.38 89.83 C 329.79 90.86, 318.88 93.31, 311.39 95.98 C 303.90 98.65, 294.33 103.10, 287.46 107.61 C 280.59 112.12, 270.80 120.63, 265.57 126.07 C 260.34 131.51, 256.38 135.85, 252.58 143.85 C 248.79 151.85, 242.12 169.05, 240.27 179.41 C 238.42 189.77, 238.12 201.94, 240.27 212.92 C 242.42 223.90, 248.37 241.20, 254.63 252.58 C 260.89 263.97, 275.73 279.49, 281.99 288.82 C 288.25 298.15, 293.38 307.42, 296.35 314.81 C 299.32 322.20, 301.10 331.39, 301.82 338.06 C 302.54 344.73, 301.95 353.62, 301.13 359.26 C 300.31 364.90, 297.79 380.08, 296.35 375.67 C 294.91 371.26, 295.05 342.47, 291.56 329.85 C 288.07 317.23, 279.67 301.10, 273.10 291.56 C 266.53 282.02, 257.94 273.85, 247.79 266.26 C 237.63 258.67, 218.02 253.58, 205.40 240.96 C 192.78 228.34, 168.81 193.64, 163.68 182.15 C 158.55 170.66, 170.48 169.81, 171.20 164.37 C 171.92 158.93, 170.93 148.05, 168.47 145.90 C 166.01 143.75, 159.92 146.62, 154.79 150.01 C 149.66 153.40, 136.74 168.37, 134.28 168.47 C 131.82 168.57, 138.28 153.97, 138.38 150.69 C 138.48 147.41, 137.11 145.67, 134.96 146.59 C 132.81 147.51, 126.48 153.15, 124.02 156.84 C 121.56 160.53, 122.55 167.71, 118.55 171.20 C 114.55 174.69, 103.09 176.50, 97.35 180.09 C 91.60 183.68, 86.40 186.63, 80.25 195.14 C 74.10 203.65, 58.37 229.05, 56.32 236.85 C 54.27 244.65, 62.17 244.55, 66.58 247.11 C 70.99 249.68, 79.05 252.82, 85.72 253.95 C 92.39 255.08, 103.95 255.45, 111.03 254.63 C 118.11 253.81, 130.55 247.15, 132.91 248.48 C 135.27 249.81, 129.02 259.62, 126.76 263.52 C 124.50 267.42, 118.28 271.18, 117.87 274.46 C 117.46 277.74, 128.12 285.91, 124.02 285.40 C 119.92 284.89, 97.48 272.99, 90.51 271.04 C 83.54 269.09, 80.80 270.77, 77.52 272.41 C 74.24 274.05, 69.76 279.12, 68.63 281.99 C 67.50 284.86, 67.03 289.61, 70.00 291.56 C 72.97 293.51, 82.00 291.08, 88.46 294.98 C 94.92 298.88, 104.98 312.11, 113.08 317.55 C 121.18 322.99, 140.22 329.07, 142.48 331.22 C 144.74 333.37, 130.38 329.14, 128.12 331.91 C 125.86 334.68, 126.62 343.02, 127.44 349.69 C 128.26 356.36, 130.72 369.38, 133.59 376.36 C 136.46 383.34, 147.31 393.22, 146.59 396.19 C 145.87 399.16, 133.84 395.37, 128.81 396.19 C 123.78 397.01, 117.29 399.30, 113.08 401.66 C 108.87 404.02, 103.33 408.73, 100.77 411.91 C 98.20 415.09, 91.57 421.22, 95.98 422.86 C 100.39 424.50, 123.30 425.01, 130.17 422.86 C 137.04 420.71, 138.00 411.68, 141.80 408.50 C 145.60 405.32, 155.17 407.10, 155.48 401.66 C 155.79 396.22, 145.18 380.87, 143.85 372.25 C 142.52 363.63, 144.95 350.47, 146.59 344.21 C 148.23 337.95, 151.51 334.34, 154.79 330.54 C 158.07 326.75, 161.80 321.99, 168.47 318.91 C 175.14 315.83, 194.01 311.15, 199.24 310.02 C 204.47 308.89, 206.62 309.65, 203.34 311.39 C 200.06 313.13, 184.03 317.34, 177.36 321.65 C 170.69 325.96, 162.59 335.08, 158.90 340.11 C 155.21 345.14, 153.77 350.13, 152.74 355.16 C 151.71 360.19, 150.21 366.44, 152.06 373.62 C 153.91 380.80, 166.08 397.28, 165.05 403.02 C 164.02 408.76, 149.63 408.93, 145.22 411.91 C 140.81 414.89, 112.36 421.32, 135.64 422.86 C 158.92 424.40, 271.11 423.50, 300.45 422.17 C 329.79 420.84, 322.71 417.77, 331.22 413.97 C 339.73 410.18, 350.34 403.54, 357.21 396.87 C 364.08 390.20, 372.84 378.03, 377.04 369.52 C 381.24 361.01, 384.01 348.52, 385.24 340.11 C 386.47 331.70, 386.78 327.80, 385.24 313.44 C 383.70 299.08, 376.32 257.70, 374.99 244.37 C 373.66 231.03, 375.44 229.77, 376.36 224.54 C 377.28 219.31, 382.37 210.32, 381.14 209.50 C 379.91 208.68, 372.46 214.35, 368.15 219.07 C 363.84 223.79, 354.78 238.81, 352.42 240.96 C 350.06 243.11, 350.37 238.66, 352.42 233.43 C 354.47 228.20, 362.00 212.03, 366.10 206.08 C 370.20 200.13, 375.67 196.64, 379.77 193.77 C 383.87 190.90, 389.04 188.47, 393.45 186.93 C 397.86 185.39, 404.36 183.92, 409.18 183.51 C 414.00 183.10, 418.61 182.15, 425.59 184.20 C 432.56 186.25, 451.58 201.19, 455.68 197.19 C 459.78 193.19, 454.79 166.86, 452.94 157.53 C 451.09 148.20, 446.34 140.40, 443.37 134.96 C 440.40 129.52, 437.32 125.59, 433.11 121.28 Z" fill="#FFFFFF" />
</g><text x="258.00" y="456.04" fill="#F8FAFC" font-family="DejaVu Sans" font-weight="700" font-size="73.58" text-anchor="middle">PXL</text></svg>